<?xml version="1.0" encoding="UTF-8"?>
<svg id="katman_2" data-name="katman 2" xmlns="http://www.w3.org/2000/svg" viewBox="0 0 360.8 332.04">
  <defs>
    <style>
      .cls-1 {
        fill: #010101;
      }

      .cls-1, .cls-2 {
        stroke-width: 0px;
      }

      .cls-2 {
        fill: #e94b59;
      }
    </style>
  </defs>
  <g id="Layer_1" data-name="Layer 1">
    <g>
      <path class="cls-1" d="m360.75,110.61c-.41,30.18-10.69,56.44-32.03,77.91-46.23,46.51-92.69,92.8-139.08,139.16-5.78,5.78-12.65,5.81-18.41.06-46.39-46.36-92.87-92.62-139.07-139.16C8.8,165.05-1.59,136.26.2,103.23,2.87,53.81,40.79,11.09,89.7,2.1c32.61-5.99,62.15,1.17,88.61,21.04,1.85,1.39,2.75,1.1,4.35-.13C203.58,7.03,227.3-.58,253.56.03c51.69,1.21,96.77,40.08,105.49,90.86,1.12,6.5,1.98,13.06,1.7,19.72Z"/>
      <path class="cls-2" d="m336.81,110.2c-.51,24.92-9.41,45.82-26.82,63.19-42.47,42.36-84.85,84.8-127.23,127.24-1.5,1.5-2.37,2.3-4.36.3-43.73-43.92-87.81-87.49-131.22-131.72-17.94-18.28-24.76-41.15-22.65-66.75,2.96-35.85,29.97-69.56,70.35-76.84,28.47-5.13,53.76,2.44,75.2,22.05,7.7,7.04,12.94,7,20.65.05,24.62-22.21,53.28-29.37,84.86-19.65,31.58,9.72,51.2,31.74,59.03,64,1.48,6.08,1.97,12.27,2.21,18.13Z"/>
      <path class="cls-1" d="m303.93,110.84c-.33,14-4.97,26.24-14.55,36.51-5.4,5.79-12.66,6.44-17.82,1.67-5.14-4.76-5.08-12.13.16-17.9,11-12.13,10.91-28.68-.23-41.17-5.8-6.5-4.65-15.51,2.46-19.36,4.61-2.49,10.47-1.63,14.38,2.32,10.38,10.5,15.34,23.25,15.6,37.92Z"/>
    </g>
  </g>
</svg>