<?xml version="1.0" encoding="UTF-8"?>
<svg id="katman_2" data-name="katman 2" xmlns="http://www.w3.org/2000/svg" viewBox="0 0 370.56 313.3">
  <defs>
    <style>
      .cls-1 {
        fill: #1e1b03;
      }

      .cls-1, .cls-2, .cls-3, .cls-4, .cls-5, .cls-6, .cls-7, .cls-8, .cls-9, .cls-10, .cls-11, .cls-12, .cls-13, .cls-14, .cls-15, .cls-16, .cls-17, .cls-18, .cls-19, .cls-20, .cls-21, .cls-22, .cls-23, .cls-24, .cls-25 {
        stroke-width: 0px;
      }

      .cls-2 {
        fill: #1e1a02;
      }

      .cls-3 {
        fill: #fffef9;
      }

      .cls-4 {
        fill: #e5e4e6;
      }

      .cls-5 {
        fill: #ffd406;
      }

      .cls-6 {
        fill: #d2d0d3;
      }

      .cls-7 {
        fill: #efbd05;
      }

      .cls-8 {
        fill: #f5a511;
      }

      .cls-9 {
        fill: #fffefa;
      }

      .cls-10 {
        fill: #ffd405;
      }

      .cls-11 {
        fill: #010202;
      }

      .cls-12 {
        fill: #fff;
      }

      .cls-13 {
        fill: #050601;
      }

      .cls-14 {
        fill: #f5a411;
      }

      .cls-15 {
        fill: #232328;
      }

      .cls-16 {
        fill: #ffd305;
      }

      .cls-17 {
        fill: #060503;
      }

      .cls-18 {
        fill: #1d1a02;
      }

      .cls-19 {
        fill: #fffefb;
      }

      .cls-20 {
        fill: #fdfdfd;
      }

      .cls-21 {
        fill: #0d0d01;
      }

      .cls-22 {
        fill: #979499;
      }

      .cls-23 {
        fill: #fffffd;
      }

      .cls-24 {
        fill: #1a1802;
      }

      .cls-25 {
        fill: #fed305;
      }
    </style>
  </defs>
  <g id="Layer_1" data-name="Layer 1">
    <g>
      <path class="cls-11" d="m41.61,119.07c-5.93.6-11.89,1.03-17.8,1.85-10.85,1.52-19-4.65-20.21-15.74-.49-4.45-.42-8.91,1.22-13.24,2.52-6.68,6.75-11.21,14.19-12.03,4.08-.45,8.15-.91,12.23-1.33,2.15-.22,3.41-.94,3.95-3.46.89-4.15,3.13-7.82,6.05-10.96,4.71-5.06,10.34-7.02,17.19-5.18,3.82,1.03,7.71,1.75,11.57,2.61.87.66,1.91-.02,2.79.34.11,0,.23.15.35.04-.69-.16-1.22-.49-1.58-1.07-14.08-5.51-27.98-11.54-42.28-16.39-12.62-4.28-15.44-13.4-13.52-24.21,1.26-7.1,4.3-13.49,10.5-17.85,3.62-2.55,7.55-3.11,11.68-1.68,39.9,13.82,79.85,27.5,119.6,41.74,4.52,1.62,7.67,1.44,11.75-.29,9.92-4.2,20.39-6.33,31.19-6.3,2.57,0,3.63-.89,4.59-3.14,2.17-5.02,5.09-9.64,8.41-14.02,1.88-2.48,3.86-2.72,6.46-1.47,1.83.87,3.44,1.99,4.9,3.36,2.1,1.97,4.38,4.04,5.34,6.66,3.38,9.24,10.38,12.19,19.53,13.13,9.11.93,18.12,3.02,27.14,4.76,1.95.37,3.2-.07,4.57-1.44,3.45-3.43,7.27-6.45,11.57-8.76,1.74-.93,3.56-1.8,5.45-2.36,5.75-1.71,7.86-.52,9.41,5.25,1.32,4.93,2.28,9.94,2.38,15.06.03,1.6.53,2.29,2.07,2.94,31.78,13.29,49.56,37.41,54.7,71.17,1.7,11.18.59,22.42-.12,33.59-.89,14.16-2.33,28.28-4.15,42.36-2.3,17.77-4.55,35.51-14.62,51.47,4.23-.59,7.98-1.21,11.81-.68,5.68.79,9.36,4.16,10.28,9.66,1.77,10.65-3.02,18.22-13.53,21.04-9.83,2.64-19.77,1.77-29.66.38-5.15-.73-10.29-1.64-15.29-3.19-2.52-.78-4.92.46-7.35.77-2.35.3-4.7.6-7.06.59-1.97,0-1.98.83-1.28,2.25,1.57,3.17,4.31,5.06,7.24,6.78,6.33,3.73,8.03,8.38,5.2,14.23-2.89,5.98-9.29,8.75-15.35,5.76-11.98-5.91-21-14.32-21.05-28.99,0-1.87-.96-2.06-2.2-2.25-22.96-3.5-45.74-8.06-68.6-12.11-12.71-2.25-25.4-4.64-38.05-7.2-3.2-.65-5.23.1-6.85,2.82-2.78,4.67-3.46,9.74-3.28,15.06.31,9.01-2.85,13.14-10.28,13.7-6.77.51-12.11-4.71-12.73-12.76-.66-8.6.42-16.93,5.35-24.28,1.4-2.08.13-2.33-1.2-2.95-19.5-9.23-31.75-24.17-36.03-45.49-1.39-6.91-1.27-13.87-1.03-20.84.06-1.82-.33-2.44-2.2-2.91-12.83-3.18-21.35-11.2-25.54-23.68-.8-2.37-1.96-.89-2.8-.66-13.38,3.68-26.78,7.28-40.06,11.28-7.77,2.34-14.09.43-19.05-5.58-5.95-7.2-8.82-15.51-6.97-24.96.97-4.98,3.7-8.66,8.71-10.24,10.99-3.47,21.99-6.9,32.99-10.34.75-.88,1.76-.97,2.82-.93.83-.1,1.52-1.23,1.93-.9-.34-.24-1.06.52-1.83.84-1.19.11-2.39.04-3.56.34Z"/>
      <path class="cls-4" d="m72.86,62.42c-1.02-.03-2.06,0-2.85-.82.52-.23,1.04-.46,1.56-.69.75.26,1.5.51,2.24.77.07.74-.2,1.06-.95.74Z"/>
      <path class="cls-22" d="m41.61,119.07c1.14-.89,2.42-.77,3.71-.48.18.17.22.3.12.38-.07.06-.16.09-.26.09-.98.22-1.95.43-2.93.65-.21-.21-.43-.43-.64-.64Z"/>
      <path class="cls-10" d="m105.4,170.05c.07-.61.16-1.22.22-1.83.39-3.93,1.53-6,6.49-6.03,7.52-.04,12.81-5.7,14.1-13.09,1.22-6.99-1.42-12.11-8.6-15.62-2.47-1.21-2.77-2.31-1.99-4.82,4.53-14.7,8.24-29.68,15.1-43.56,7.01-14.2,17.27-25.47,31.14-33.32.95-.54,1.95-1,3.02-1.55,3.35,12.99,10.15,23.09,22.48,28.79,7.38,3.41,15.22,4.71,23.28,4.08,12.21-.95,20.36-9.12,22.64-22.09.85-4.83,1.06-9.69.58-14.51-.32-3.29.91-3.38,3.46-2.9,12.82,2.42,25.68,4.64,38.48,7.16,3.6.71,6.27.39,8.97-2.51,3.82-4.09,8.42-7.37,13.57-9.75,2.52-1.17,3.9-.84,4.58,2.22,1.1,5.01,1.86,10.04,2.02,15.14.07,2.28.75,3.5,3.05,4.38,31.45,12.12,48.92,35.29,53.83,68.37.32,2.16-.86,2.49-2.26,3.07-7.92,3.29-14.86,8.12-20.91,14.11-12.73,12.62-9.19,29.98,7.37,36.75,3.23,1.32,6.56,2.49,10.03,2.77,2.99.24,3.26,1.7,2.92,4.11-1.09,7.76-2.08,15.54-3.1,23.31-2.33,12.21-9.39,21.5-18.46,29.43-10.46,9.14-22.01,16.26-35.97,18.88-3.3.62-5.11-.14-6.34-3.32-4.33-11.16-10.81-21.01-18.73-29.95-1.25-1.41-2.73-2.54-4.09-3.81-1.57-1.47-3.83-2.52-3.85-5.17,5.24-1.04,10.5-2,15.72-3.15,2.19-.48,3.65.08,5.17,1.75,3.01,3.29,6.87,5.31,11.21,6.32,1.98.46,3.97.34,4.44-2.06.4-2.01-1.19-2.61-2.91-3.13-9.93-2.96-18.42-14.97-18.03-25.33.13-3.62,2.24-5.82,5.69-6.16,3.7-.37,5.06,1.67,5.65,4.93.94,5.27,2.86,10.06,7.53,13.23,1.6,1.08,3.47,2.12,4.9.01,1.41-2.08-.1-3.36-1.81-4.49-3.52-2.33-4.61-6.09-5.32-9.89-.79-4.22-2.46-7.55-6.87-8.86-4.78-1.43-8.94-.16-12.26,3.32-1.32,1.38-2.38,1.67-4.13,1.31-4.5-.92-9.05-1.61-13.58-2.45-1.22-.23-2.35-.66-3.31-1.57-9.87-9.31-22.1-12.23-35.16-13.38-9.2-.81-17.61.61-25.01,6.33-9,6.97-13.52,16.34-14.43,27.56-.22,1.92-1.67,2.66-3.2,3.27-13.3,5.3-24.75,13.29-34.66,23.6-3.63,3.77-4.98,3.93-9.35.83-19.27-13.62-30.42-32.16-33.37-55.6-.22-1.74.57-3.43.1-5.16Z"/>
      <path class="cls-14" d="m105.4,170.05c1.48,5.23,1.16,10.74,2.74,15.99,5.55,18.47,15.5,33.7,31.76,44.54,2.77,1.84,4.67,1.88,7.05-.7,10-10.85,21.85-19.11,35.67-24.44,1.29-.5,2.46-1.17,3.28-2.33.61,3.15-.53,5.09-3.36,6.91-11.07,7.13-16.91,17.8-19.62,30.42-.94,4.35-2.12,8.65-2.91,13.02-.31,1.71-.97,2.09-2.44,1.78-19.15-4.08-36.1-11.75-46.78-29.27-4.76-7.82-7.69-16.32-7.79-25.62-.51-4.75-.52-9.5,0-14.25-.24-5.51,1.11-10.78,2.41-16.05Z"/>
      <path class="cls-14" d="m268.39,218.79c7.05,6.8,13.97,13.68,19.15,22.14,3.46,5.64,6.42,11.5,8.92,17.59.72,1.76,1.64,2.21,3.37,1.92,13.37-2.28,24.62-8.81,34.98-17.22,10.01-8.13,16.92-18.32,21.02-30.49-2.58,21.99-8.94,42.13-28.24,55.51-10.76,7.46-23.02,10.25-36.02,9.77-4.47-.16-8.93-.64-13.39-1.02-2.12-.18-3.08-.76-2.63-3.5,1.36-8.34,2.92-16.74,2.28-25.23-.82-10.94-5.4-20.32-13.16-28.55,1.45-.35,2.58-.63,3.72-.91Z"/>
      <path class="cls-10" d="m157.01,48.16c-5.1,3.46-9.91,6.9-14.09,11.13-1.7,1.72-2.01-.31-2.61-1.11-8.07-10.62-18.48-17.56-31.6-20.29-9.1-1.9-18.09-.19-27.1.84-13.85,1.58-27.69,3.35-41.69,2.66-5.1-.25-9.73-2.12-14.05-4.48-4.28-2.34-5.25-6.77-5.11-11.3.2-6.69,2.31-12.69,7.21-17.46,1.58-1.54,3.5-3.42,5.82-2.32,2.74,1.29,3.53,4.11,3.25,7.01-.39,3.99-2.39,7.28-5.03,10.18-1.51,1.65-3.2,3.14-4.77,4.73-.67.68-1.65,1.36-.54,2.45.92.91,1.57.15,2.22-.4.76-.64,1.68-1.2,2.2-2.01,2.99-4.69,6.22-4.41,11.25-2.36,17.32,7.08,35.24,7.91,53.32,2.68,1.4-.41,2.74-.79,4.29-.24,18.61,6.54,37.24,13.01,55.87,19.51.31.11.57.37,1.18.78Z"/>
      <path class="cls-10" d="m46.22,44.96c15.76-.83,31.27-3.22,46.86-4.82,18.91-1.95,34.03,5.03,45.41,20.24,1.06,1.41,1.16,2.3-.11,3.77-2.67,3.11-4.97,6.52-7.51,9.75-.83,1.05-.97,3.3-2.96,2.65-2.21-.72-4.99-.59-6.09-3.51-1.46-3.9-3.74-7.32-6.87-10.07-8.27-7.26-17.87-7.36-27.77-4.68-2.93.79-5.36.77-8.17-.38-10.88-4.44-21.86-8.65-32.8-12.95Z"/>
      <path class="cls-10" d="m23.86,152.47c-1.09-3.17.34-4.39,3.65-5.37,14.38-4.28,26.34-12.51,35.24-24.48,3.5-4.7,7.8-6.81,12.85-7.78,7.55-1.45,15.23-2.31,22.88-3.19,4.93-.56,9.47,1.82,14.26,2.43.93.12,1.61.65,1.07,1.83-.52,1.13-.18,2.95-2.37,2.59-1.96-.32-3.93-.63-5.91-.82-22.46-2.1-39.46,7.46-52.82,24.77-3.81,4.94-7.15,10.18-9.69,15.87-.86,1.93-2.17,2.79-4.08,3.3-4.91,1.32-9.82,2.68-14.68,4.17-4.54,1.4-8.43.28-11.59-3.03-5.56-5.83-7.82-12.88-6.89-20.87.26-2.24,1-4.59,3.4-5.38,2.28-.75,4.44.26,6.21,1.77,3.76,3.22,4.68,7.74,5.34,12.32.25,1.72.34,3.47.49,5.21.08.94.37,1.9,1.42,1.84,1.05-.06,1.22-1.05,1.2-1.99-.02-1,0-1.99,0-3.2Z"/>
      <path class="cls-10" d="m118.05,101.88c-1.93,7.47-1.95,7.54-8.66,5.93-20.51-4.9-41-9.88-61.51-14.79-4.63-1.11-7.3-3.9-8.17-8.57-1.22-6.61,3.05-15.96,8.9-19.28,2.35-1.33,4.85-2.23,7.39-.72,2.64,1.57,3.29,4.21,3.12,7.11-.31,5.33-3.44,9.19-6.79,12.92-.75.83-1.58,1.59-2.33,2.42-.49.55-1.04,1.18-.3,1.93.63.65,1.27.46,1.99.04,6.89-3.99,11.44-15.08,9.34-23.39,3.33.27,5.94.74,7.67,4.31,4.06,8.33,9.55,15.74,16.51,21.93,9.27,8.24,19.82,12.65,32.84,10.16Z"/>
      <path class="cls-14" d="m250.6,203.29c-.01,11.99-3.26,20.49-10.28,27.38-11.42,11.21-28.52,11.55-40.47.91-15.47-13.78-14.91-40.28,1.12-53.11,13.71-10.98,32.72-8.3,42.99,6.06,4.48,6.27,6.72,13.24,6.64,18.76Z"/>
      <path class="cls-10" d="m45.21,159.76c8.99-16.95,19.87-30.79,38.06-37.1,8.43-2.92,17.05-3.25,25.8-1.9,2.46.38,3.25,1.22,2.3,3.83-1.32,3.6-1.04,8.76-3.48,10.71-2.48,1.99-6.87-1.45-10.51-2.23-15.98-3.44-26.49,3.01-30.14,18.93-.29,1.26-.62,1.97-1.91,2.31-6.46,1.7-12.9,3.48-20.11,5.44Z"/>
      <path class="cls-10" d="m123.97,86.15c-1.43,3.9-2.78,7.35-3.94,10.87-.52,1.57-1.55,1.97-2.99,2.24-10.38,1.92-19.44-1.03-27.53-7.45-7.37-5.85-13.84-14.12-18.48-23.53,5.53,0,10.47,2.12,15.61,3.12,4.02.78,7.39,1.95,10.06,6.19,4.41,7.03,12.49,7.93,20.18,8.53,2.22.17,4.47.03,7.1.03Z"/>
      <path class="cls-10" d="m23.35,84.93c.97-.09,1.57-.14,2.16-.2,2.6-.26,5.44-1.3,7.72-.56,2.34.76,1.52,4.28,2.72,6.4,2.66,4.69,6.82,7.01,12.61,8.34-1.39.77-2.14,1.21-2.92,1.61-5.22,2.71-10.34,5.79-13.97,10.38-3.69,4.66-8.33,4.8-13.35,4.54-3.14-.16-5.25-2.07-6.85-4.58-3.77-5.91-3.27-15.89,1-21.54,1.67-2.2,3.7-3.8,6.63-3.18,2.75.59,3.99,2.73,4.7,5.25,1.59,5.63-.92,10.42-3.05,15.31-.62,1.43-2.97,3.26-.81,4.42,2.14,1.15,2.3-1.87,3.2-3.12.71-.99,1.12-2.2,1.6-3.34,2.85-6.71,3.85-13.33-1.4-19.75Z"/>
      <path class="cls-12" d="m242.99,232.57c7.5-8.89,11.33-19.01,10.25-30.57-1.09-11.59-6.43-20.97-16.21-27.91,12.72,0,27.37,12.36,29.16,24.31,2.28,15.32-7,29.33-23.19,34.17Z"/>
      <path class="cls-10" d="m321.4,277.98c7.77-3.86,13.96-9.53,20.53-14.86,5.05-4.1,12.05-5.02,18.81-3.45,2.63.61,3.89,2.53,4.2,5.1.53,4.5.27,8.79-3.84,11.75-2.89,2.08-6.22,2.99-9.7,3.56-10.13,1.66-20.02-.09-30-2.11Z"/>
      <path class="cls-10" d="m38.79,6.8c18.33,6.35,36.18,12.53,55.03,19.06-19.23,4.81-36.79,3.34-53.9-4.1-1.97-.86-2.54-1.6-1.45-3.82,1.84-3.75,1.69-5.86.31-11.14Z"/>
      <path class="cls-10" d="m60.74,119.58c-3.15,5.53-7.39,9.64-12.04,13.34-6.97,5.55-14.73,9.6-23.29,12.1-1.57.46-2.7.74-3.37-1.44-1.19-3.88-3.55-7.03-7.62-9.29,15.79-5.01,31.05-9.86,46.32-14.71Z"/>
      <path class="cls-10" d="m70.38,152.85c-.18-9.7,7.96-17.65,18.24-17.97,5.29-.16,10.36,1.07,15.28,2.93,1.21.46,3.19.16,2.98,2.51-.19,2.01-1.12,3.04-3.12,3.56-8.41,2.16-16.78,4.47-25.17,6.72-2.72.73-5.43,1.48-8.2,2.24Z"/>
      <path class="cls-10" d="m33.13,114.33c5.07-6.62,11.57-10.77,18.93-13.63.87-.34,1.96-.17,2.94-.18.36,0,.72.19,1.08.27,9.25,2.23,18.49,4.46,27.73,7.17-16.89,2.12-33.79,4.24-50.68,6.36Z"/>
      <path class="cls-14" d="m266.4,216.52c4.1-10.33,3.77-19.79-1.85-29.28,4.52.8,8.61,1.55,12.71,2.24,1.03.17,1.51.44,1.36,1.66-.89,7.17,1.94,13.38,5.33,19.35,1.18,2.07.91,2.64-1.44,3.01-5.24.83-10.43,1.94-16.12,3.03Z"/>
      <path class="cls-5" d="m277.38,284.53c-.33-1.79.44-2.63,2.46-2.16.36.08.73.19,1.1.19,5.23.05,9.73.49,11.5,7.06.97,3.59,5.06,5.65,8.49,7.46,2.45,1.29,4.12,2.82,2.98,5.87-1.17,3.13-3.29,5.05-6.75,4.67-8.26-.92-19.88-14.45-19.79-23.09Z"/>
      <path class="cls-5" d="m135.36,276.76c.45-6.7,1.3-12.68,4.85-17.95,1.23-1.83,2.42-2.47,4.62-1.56,2.39.99,5.98.78,7.18,2.44,1.18,1.64-1.93,4.1-2.63,6.47-1.44,4.93-2.54,9.87-1.62,15.03.54,3-.3,5.25-3.38,6.09-3.04.83-5.75.14-7.4-2.76-1.46-2.56-1.39-5.5-1.62-7.76Z"/>
      <path class="cls-5" d="m82.19,155.23c1.91-.91,3.12-.78,4.41,1.4,2.6,4.41,6.65,7.38,11.55,8.94,1.96.62,2.4,1.62,1.91,3.47-.54,2.04-1.27,4.12-1.28,6.18-.01,4.01-2.2,3.66-4.8,2.79-8.75-2.94-14.76-8.84-18.71-17.09-1.39-2.9-.76-4.19,2.37-4.48.73-.07,1.43-.33,2.15-.5,2.41,2.36,3.54,5.64,5.82,8.1,2.44,2.63,5.07,4.92,8.93,5.88-5.68-3.85-10.82-7.76-12.35-14.7Z"/>
      <path class="cls-16" d="m118.84,73.64c-10.6-4.21-20.7-8.22-30.9-12.26,11.43-5.07,26.35-.56,30.9,12.26Z"/>
      <path class="cls-25" d="m126.9,82.09c-10.29,3.1-26.69-.34-29.04-7.93,9.58,2.39,19.12,4.02,29.04,7.93Z"/>
      <path class="cls-20" d="m90.79,152.93c4.59-1.27,8.95-2.47,13.67-3.78-.78,3.53-1.54,6.85-2.25,10.18-.33,1.57-1.21,1.54-2.44,1.04-3.64-1.49-6.73-3.63-8.99-7.44Z"/>
      <path class="cls-19" d="m82.19,155.23c3.35,6.38,7.81,11.67,14.79,14.72-5.59,2.24-13.4-4.33-17.19-14.01.8-.24,1.6-.48,2.4-.71Z"/>
      <path class="cls-7" d="m102.99,186.1c0,4.75,0,9.5,0,14.24-1.12-4.75-1.07-9.5,0-14.24Z"/>
      <path class="cls-15" d="m45.18,119.07c.03-.16.08-.32.14-.47q1.12-.62,3.15-.63c-1.52.51-2.41.8-3.29,1.1Z"/>
      <path class="cls-6" d="m72.86,62.42c.32-.25.64-.49.95-.74.76.26,1.52.53,3.06,1.07-1.99.56-3.04.49-4.02-.33Z"/>
      <path class="cls-12" d="m275.39,59.9c7.32.93,14.38,3.34,21.27,6.18,15.42,6.36,29.69,14.59,41.44,26.67,2.88,2.96,5.43,6.21,7.12,9.98,1.22,2.71,2.78,6.12.06,8.28-3.03,2.41-5.93-.14-8.09-2.39-6.94-7.19-14.52-13.62-22.67-19.4-11.83-8.39-24.46-15.25-38.12-20.19-1.86-.67-3.7-1.48-5.43-2.44-1.27-.71-2.75-1.56-2.56-3.35.21-1.98,1.97-2.41,3.51-2.86,1.06-.31,2.2-.32,3.48-.49Z"/>
      <path class="cls-13" d="m293.41,137.99c-1.4.05-2.61-.59-3.83-1.21-3.42-1.74-6.84-3.48-10.24-5.27-1.57-.83-2.47-2.1-1.94-3.97.58-2.04,2.12-2.72,4.03-2.41,5.37.88,10.15,3.11,14.2,6.76,1.29,1.16,1.72,2.77.87,4.41-.61,1.18-1.64,1.85-3.09,1.68Z"/>
      <path class="cls-13" d="m202.17,111.54c1.98,0,3.99-.21,5.9.47,1.52.54,2.53,1.67,2.54,3.33,0,1.71-.99,2.75-2.66,3.09-4.87.98-9.8,1.54-14.76,1.71-1.71.06-3.2-.57-3.53-2.59-.31-1.83.44-3.15,2.02-3.99,3.29-1.75,6.89-1.91,10.5-2.02Z"/>
      <path class="cls-21" d="m250.66,125.14c2.74-.02,4.84-.96,5.55-3.89.24-.97.48-2.23,1.79-1.81,1.35.43,1.06,1.7.83,2.86-1.01,5.02-8.13,7.56-13.44,4.49-1.63-.94-2.88-1.17-4.68-.87-3.05.5-5.95-.42-8.35-2.38-2.16-1.75-3.21-4.09-2.51-6.93.23-.93.49-2.1,1.87-1.83,1.17.23.9,1.23.92,2.09.13,4.16,3.57,6.94,7.63,6.37,2.24-.32,2.14-2.18,2.57-3.59.36-1.2.31-2.75,2.02-2.41,1.38.28,1.15,1.72,1.05,2.83-.35,3.96.71,5.1,4.75,5.08Z"/>
      <path class="cls-23" d="m255.77,54.68c2.67.2,4.34,1.57,4.43,4.39.09,2.89-1.74,4.45-4.34,4.54-2.69.09-4.52-1.68-4.55-4.38-.04-2.66,1.56-4.33,4.46-4.54Z"/>
      <path class="cls-19" d="m303.43,209.37c-3.26.8-4.74-.66-6.2-1.97-3.97-3.57-5.85-8.28-7-13.34-.25-1.09-.49-2.53.97-2.77,1.09-.18,1.62,1.11,1.8,2.07,1.18,6.51,4.28,11.84,10.43,16Z"/>
      <path class="cls-2" d="m177.02,124.69c-3.03-.58-6.06-1.18-9.1-1.73-.97-.17-1.74-.53-1.56-1.61.17-1.01.95-1.34,1.97-1.15,3.15.62,6.3,1.23,9.46,1.82.91.17,1.81.41,1.58,1.58-.26,1.37-1.3,1.25-2.35,1.08Z"/>
      <path class="cls-1" d="m306.15,145.16c2.85.52,6.15,1.1,9.43,1.74.76.15,1.44.65,1.29,1.53-.13.8-.83,1.35-1.62,1.21-3.42-.59-6.82-1.28-10.22-1.94-.8-.16-1.47-.59-1.35-1.47.15-1.16,1.12-1.12,2.47-1.07Z"/>
      <path class="cls-18" d="m175.01,128.84c1.49,0,2.98-.53,3.19.99.2,1.49-1.36,1.56-2.39,1.72-2.8.45-5.62.78-8.43,1.13-.92.11-1.9-.04-2.06-1.08-.16-1.08.84-1.43,1.7-1.57,2.8-.46,5.61-.84,7.99-1.19Z"/>
      <path class="cls-24" d="m314.08,157.81c-.16,1.14-.79,1.78-1.77,1.28-3.18-1.63-6.3-3.36-9.4-5.12-.47-.27-.91-.88-.49-1.58.34-.56.92-1.13,1.48-.83,3.26,1.73,6.47,3.56,9.68,5.39.26.15.35.6.5.86Z"/>
      <path class="cls-17" d="m193.64,205.1c.41-7.77,2.63-14.86,8.22-20.6,10.28-10.56,26.35-9.78,35.16,2.03,7.89,10.57,8.57,22.08,2.51,33.67-4.34,8.29-11.47,13.23-21,13.23-9.56,0-16.37-5.17-21.03-13.27-2.65-4.62-3.65-9.73-3.86-15.06Z"/>
      <path class="cls-9" d="m286.81,284.44c2.45,7.02,6.66,11.3,12.4,14.21,1.01.51,2.64,1.25,1.77,2.69-.63,1.06-1.98.33-3.01-.18-4.54-2.26-8.33-5.36-10.72-9.9-.94-1.77-1.93-3.68-.44-6.82Z"/>
      <path class="cls-3" d="m146.19,259.9c-4.8,5.66-5.77,11.5-5.08,17.79.13,1.21.69,3.16-1.33,3.21-1.53.04-1.51-1.71-1.59-2.93-.35-5.3.06-10.46,3.1-15.05.93-1.41,1.9-2.84,4.89-3.02Z"/>
      <path class="cls-12" d="m240.77,205.76c-.14,6.63-2.24,13.11-7.32,18.42-8.95,9.35-22.42,8.86-30.77-1.06-8.61-10.23-8.33-26.69.61-36.35,9.42-10.17,24.07-9.28,32.21,1.99,3.53,4.89,5.19,10.4,5.27,17.01Z"/>
      <path class="cls-5" d="m201.81,205.75c-.03-10.15,6.61-18.63,15.09-19.28,11.33-.87,20.52,10.32,18.3,22.28-1.67,9-7.65,15.37-14.96,15.93-10.3.8-18.39-7.52-18.43-18.93Z"/>
      <path class="cls-8" d="m218.62,218.67c-6.29-.01-11.6-6.04-11.56-13.15.03-7.13,5.38-13.09,11.67-13.03,5.86.05,11.76,6.29,11.36,12.97-.42,7.12-3.97,12.9-11.47,13.21Z"/>
    </g>
  </g>
</svg>