<?xml version="1.0" encoding="UTF-8"?>
<svg id="katman_2" data-name="katman 2" xmlns="http://www.w3.org/2000/svg" viewBox="0 0 372.98 325.31">
  <defs>
    <style>
      .cls-1 {
        fill: #ffd406;
      }

      .cls-1, .cls-2, .cls-3, .cls-4, .cls-5, .cls-6, .cls-7, .cls-8, .cls-9, .cls-10, .cls-11, .cls-12, .cls-13, .cls-14, .cls-15, .cls-16, .cls-17, .cls-18, .cls-19, .cls-20, .cls-21, .cls-22, .cls-23, .cls-24, .cls-25, .cls-26, .cls-27, .cls-28, .cls-29, .cls-30, .cls-31, .cls-32, .cls-33, .cls-34, .cls-35, .cls-36, .cls-37, .cls-38 {
        stroke-width: 0px;
      }

      .cls-2 {
        fill: #fdecca;
      }

      .cls-3 {
        fill: #72c8f0;
      }

      .cls-4 {
        fill: #ffd50c;
      }

      .cls-5 {
        fill: #eae9ea;
      }

      .cls-6 {
        fill: #1c1904;
      }

      .cls-7 {
        fill: #0e0e01;
      }

      .cls-8 {
        fill: #f0e318;
      }

      .cls-9 {
        fill: #fef5e5;
      }

      .cls-10 {
        fill: #181100;
      }

      .cls-11 {
        fill: #2a2508;
      }

      .cls-12 {
        fill: #f0e218;
      }

      .cls-13 {
        fill: #010201;
      }

      .cls-14 {
        fill: #e22822;
      }

      .cls-15 {
        fill: #3e58a2;
      }

      .cls-16 {
        fill: #2d281f;
      }

      .cls-17 {
        fill: #292408;
      }

      .cls-18 {
        fill: #6d6ca9;
      }

      .cls-19 {
        fill: #ffd405;
      }

      .cls-20 {
        fill: #030404;
      }

      .cls-21 {
        fill: #342d0a;
      }

      .cls-22 {
        fill: #fff;
      }

      .cls-23 {
        fill: #6ab333;
      }

      .cls-24 {
        fill: #fffefd;
      }

      .cls-25 {
        fill: #ec8a09;
      }

      .cls-26 {
        fill: #feeed2;
      }

      .cls-27 {
        fill: #fffdf4;
      }

      .cls-28 {
        fill: #f5a40c;
      }

      .cls-29 {
        fill: #f5a40b;
      }

      .cls-30 {
        fill: #ffd407;
      }

      .cls-31 {
        fill: #040503;
      }

      .cls-32 {
        fill: #7ac6d7;
      }

      .cls-33 {
        fill: #fffdf2;
      }

      .cls-34 {
        fill: #ec8a08;
      }

      .cls-35 {
        fill: #0d0d00;
      }

      .cls-36 {
        fill: #352e0b;
      }

      .cls-37 {
        fill: #fffffe;
      }

      .cls-38 {
        fill: #82579e;
      }
    </style>
  </defs>
  <g id="Layer_1" data-name="Layer 1">
    <path class="cls-29" d="m303.23,176.4c15.71,11.26,28.17,25.09,32.97,44.3,5.08,20.35-1.02,38.17-14.09,53.86-14.95,17.96-34.61,29.01-56.13,37.01-32.43,12.05-66.03,15.5-100.37,12.94-26.57-1.98-52.15-7.9-76.22-19.53-17.85-8.62-33.78-19.78-45.23-36.35-9.55-13.82-13.44-29.01-10.16-45.73.14-.72.1-1.48.14-2.23,1.11-.78,2.16-.25,3.15.22,6.58,3.16,13.55,4.74,20.79,5.23.75.05,1.47.21,2.11.63,1.23,1.32.89,3.01,1.03,4.58.26,2.94,1.05,5.59,3.77,7.25,3.04,3.35,6.51,6.16,10.52,8.24,9.05,4.69,15.85,11.65,20.15,20.79,4.57,9.71,12.14,13.41,22.51,13.15,13.48-.34,26.68-2.54,39.86-5.16,13.34-2.8,26.67-4.04,40.01-.04,17.76,6.15,35.89,7.71,54.41,4.3,5.19-.96,10.03-2.87,14.62-5.46,3.98-2.25,7.21-5.24,9.54-9.23,4.01-6.88,8.22-13.6,13.59-19.59,3.03-3.37,6.46-6.2,10.02-8.89,2.96-2.23,5.39-4.77,6.88-8.17.6-1.25,1.06-2.54,1.29-3.91,2.89-11.79,1.44-23.34-1.96-34.76-.92-3.08-2.05-6.1-3.01-9.17-.44-1.39-1.14-2.8-.19-4.27Z"/>
    <path class="cls-13" d="m303.23,176.4c2.23,7.43,5.2,14.65,6.55,22.33,1.58,8.97,1.92,17.93-.59,26.82-.45.17-.79.05-1.03-.37-.69-1.4-.62-2.92-.54-4.4.78-13.73-2.63-26.62-7.52-39.28-4.3-11.15-8.53-22.36-10.04-34.31-.8-6.39-2.11-12.8-.37-19.26,2.37-8.76,9.95-11.94,17.65-7.12,6.22,3.9,11.73,8.85,18.03,12.64,7.17,4.31,14.66,6.09,22.69,2.42,5.13-2.86,9.94-6.12,14.08-10.38,6.24-6.44,7.67-13.72,4.37-21.98-1.02-2.55-2.22-5.03-3.68-7.35-4.86-7.72-9.02-15.75-12.19-24.34-2.11-5.73-5.39-10.94-9.27-15.71-2.14-2.92-5.1-3.95-8.63-4.4-6.86-.86-12.15-4.64-15.6-10.47-2.04-3.45-4.83-4.68-8.42-5.32-5.69-1-11.42-.88-17.15-.9-1.98,0-4,.25-5.93-.45-1.84-1.04-2.12-2.97-2.63-4.75-2.49-8.64-7.39-15.72-14.06-21.64-.65-.58-1.36-1.1-2.12-1.53-2.7-1.52-3.78-1.13-4.51,1.92-2.13,8.85-1.83,17.54,1.99,25.95.7,1.55,1.87,3.02,1.19,4.92-1,1.53-2.6,2.29-4.11,3.14-16.34,9.19-26.32,23.27-30.82,41.19-3.74,14.9-3.25,30.06-1.35,45.19.06.24.13.48.15.73.45,7.19,2.26,13.37,7.86,18.88,9.59,9.43,12.17,22.56,15.68,35.01,1.28,4.55,2.32,9.17,3.47,13.76.26,1.04.3,2.16,1.61,2.72,4.06,1.72,4.04,1.77,1.88,5.57-6.82,7.42-14.87,13.1-24.21,16.89-2.19.89-3.37,2.27-3.79,4.58-.95,5.21-2.6,6.97-6.71,7.48-3.88.48-6.63-1.46-8.64-6.08-.41-1.62-.45-3.29-.62-4.95.35-3.88,1.15-7.62,3.14-11.05,1.55-2.65,3.55-4.8,6.32-6.17,1.39-.69,2.93-1.22,4.02.38,1.12,1.64.55,3.19-1.02,4.17-4.73,2.95-6.15,7.57-6.75,12.69-.12,1.02-.08,1.95.24,2.92.38,1.16.95,2.06,2.29,2.07,1.5.02,1.79-1.13,1.99-2.26.5-2.85,1.33-5.57,2.81-8.08,2.1-3.57,3.79-4.23,7.86-2.78,1.03.37,1.67-.09,2.42-.44,3.74-1.76,7.14-4.08,10.41-6.58,2.8-2.14,3.24-6.21,1.24-9.04-.85-1.21-2.06-1.38-3.31-1.18-2.38.38-4.73.09-7.07-.26-7.59-1.13-12.61-8.39-11-15.91,1.27-5.93,4.76-10.67,8.77-14.97,2.06-2.21,2.33-4.06.87-6.61-8.66-15.18-21.8-23.23-39.09-24.38-3.77-.25-6.03-1.38-7.27-4.99-.69-2.03-1.25-5.01-3.62-5.25-2.65-.27-3.78,2.7-4.72,4.7-2.25,4.76-5.96,6.45-10.94,7.01-5.68.64-11.33,1.68-16.99,2.57-2.61.41-3.32,1.34-2.45,3.96,1.13,3.41,2.25,6.92,1.84,10.6-.97,8.74-6.73,14.4-16.05,15.53-9.34,1.14-17.98-.25-24.32-8.13-1.98-2.46-3.31-1.29-4.63.54-5.22,7.22-8.25,15.26-9.35,24.11-.63,5.08-.56,10.18-.99,15.26-1.32,2.4-2.38.74-3.26-.32-1.91-2.3-1.36-5.12-1.45-7.8-.22-7.33.53-14.52,3.84-22.02-4.52,2.26-7.78,4.85-11,7.49-1.14.94-2.17,2.05-3.71,2.36-1.92-.17-2.51-1.51-2.81-3.13.05-1.4,1.04-2.18,1.99-2.99,5.15-4.35,10.66-8.2,16.64-11.31,2.39-1.24,4.46-2.67,5.8-5.05,1.2-2.14,3.3-3.33,5.16-4.78,5.67-5.3,11.89-9.77,19.29-12.35,1.49-.52,1.74-1.34,1.78-2.71.09-2.99,1.09-5.82,1.76-8.72.73-3.14,2.62-3.6,5.28-2.82,3.93,1.15,7.1,3.58,9.9,6.41,1.51,1.52,2.95,1.89,4.95,1.56,6.97-1.14,13.96-2.19,20.95-3.23,1.73-.26,2.75-1.15,3.57-2.73,1.97-3.76,4.29-7.3,8.07-9.55,2.1-1.25,3.94-1.32,5.3,1.15.84,1.52,2.21,2.83,2.69,4.44,1.28,4.23,3.92,5.86,8.3,6.04,7.66.31,14.62,3.31,21.5,7-.37-3.32.07-6.42-1.02-9.36-.94-1.11-1.13-2.47-1.26-3.85-.86-9.42-1.91-18.83-.59-28.29.71-9.46,2.96-18.55,6.78-27.25,2.25-4.66,4.66-9.23,7.82-13.36,4.9-7.08,11.41-12.41,18.53-17.09,2.76-1.08,3.24-2.82,2.19-5.61-2.04-5.39-3.18-10.96-1.75-16.75.59-3.77.81-7.59,1.86-11.31,1.5-5.29,4.36-6.8,9.37-4.61,4.31,1.89,7.33,5.38,10.55,8.61,5,3.67,7.3,9.14,9.54,14.59,1.87,4.56,1.73,4.62,6.54,4.51,5.84-.26,11.57.56,17.27,1.7,1.39.28,3.02.32,3.72,1.98,2.21,1.22,3.36-.25,4.63-1.71,7.76-8.95,15.7-17.74,25.04-25.11,2.64-2.08,5.36-4.05,8.54-5.24,2.52-.94,5.15-1.44,7.39.53,2.18,1.92,2.4,4.53,1.85,7.23-2.13,10.51-7.49,19.64-12.54,28.89-1.9,3.49-4.02,6.86-6.15,10.22-.87,1.37-1.24,2.28.09,3.81,5.2,5.94,9.15,12.75,11.86,20.12,2.77,7.51,6.55,14.43,10.73,21.19,2.28,3.69,4.26,7.55,5.6,11.72,2.06,6.37,1.6,12.45-1.64,18.34-6.93,12.58-22.13,21.15-35.16,19.58-7.16-.86-12.96-4.77-18.52-9.02-3.26-2.49-6.44-5.1-9.77-7.5-2.7-1.95-5.9-3.4-9.05-1.8-3.32,1.69-3.84,5.26-3.96,8.72-.55,15.34,3.23,29.73,9.61,43.54Z"/>
    <path class="cls-15" d="m1.77,152.69c.06-.37.11-.75.17-1.12.75-.12,1.04.38,1.3.94.47,4.19.66,8.43,1.7,12.53,3.04,12,10,21.38,20.07,28.28,13.13,9,27.74,13.8,43.76,14.04,4.04.06,7.88-.92,11.67-2.21,1.38-.47,2.7-1.39,4.29-.8.33.28.47.63.43,1.05-3.78,7.04-10.08,10.73-17.39,13.08-7.23,2.33-14.35.96-21.26-1.21-20.61-6.47-35.15-19.54-42.74-40.01-2.98-8.04-3.28-16.23-2-24.59Z"/>
    <path class="cls-38" d="m1.77,152.69c-.22,9.35.29,18.51,4.12,27.35,7.08,16.35,18.79,27.68,35.25,34.35,5.81,2.36,11.82,4.12,17.98,4.27,9.86.24,17.99-3.96,24.21-11.7.46-.57.99-1.08,1.49-1.62,1.47,1.48.63,3,0,4.46-4.13,9.54-11.06,15.66-21.47,17.52-1.13.11-2.31.66-3.36-.26-9.19.2-17.68-2.47-25.85-6.38-16.69-9.61-28.11-23.37-32.58-42.31-2.01-8.5-2.2-17.14.22-25.67Z"/>
    <path class="cls-8" d="m4.24,146.96c.18,0,.34.04.48.14,1.12,1.17,1.03,2.76,1.42,4.17,3.5,12.74,12.45,20.25,24.09,25.22,7.71,3.29,15.78,5.32,23.96,7,7.35,1.51,14.45,3.71,21.05,7.37,4.31,2.39,8.14,5.27,10.75,9.56.4.69.72,1.41.71,2.23-.08.43-.32.72-.73.87-3.22.3-6.06-1.2-9.04-1.97-13.01-3.33-26.16-6.1-39-10.09-7.32-2.27-14.13-5.64-20.04-10.5-9.56-7.86-14.49-18.11-14.76-30.53.21-1.21.14-2.51,1.11-3.47Z"/>
    <path class="cls-14" d="m86.28,202.32c-.24-.46-.47-.91-.71-1.37-1.87-5.51-3.36-11.11-7.88-15.38-3.74-3.53-7.86-5.98-12.81-7.22-8.56-2.14-17.34-3.36-25.84-5.75-9.38-2.63-18.54-5.76-26.02-12.42-2.35-2.09-4.39-4.44-5.97-7.11-.95-1.61-2.37-3.27-1.42-5.45,5.84,6.89,13.94,9.66,22.2,12.05,10.5,3.04,21.28,4.84,32.03,6.76,5.16.92,10.14,2.37,14.73,4.97,3.9.86,6.71,2.97,7.92,6.91.66,1.11,1.32,2.23,1.98,3.34,1.32.28,1.66,1.43,2.01,2.45,1.71,4.89,2.1,9.93,1.47,15.04-.15,1.23-.53,2.44-1.7,3.17Z"/>
    <path class="cls-34" d="m5.63,147.63c2.73,8.72,9.34,13.92,16.94,17.89,9.45,4.93,19.81,7.15,30.2,9.2,5.96,1.17,11.97,2.14,17.65,4.48,8.49,3.49,15.26,13.17,15.14,21.77-7.97-10.41-19.61-13.87-31.61-16.52-10.45-2.31-20.88-4.68-30.25-10.09-10.55-6.09-17.86-14.54-18.99-27.25.48-.13.79.03.91.53Z"/>
    <path class="cls-23" d="m255.45,40.66c-6.77,4.5-12.71,9.9-17.78,16.26-1.37-.02-1.8-1.18-2.43-2.07-2.89-4.07-6.4-6.94-11.81-6.46-1.08.1-2.28.06-3.03-1.02.02-8.89,5.11-14.22,12.64-17.67,2.35-1.08,4.95-1.62,7.43-2.41,1.04-.49,1.98-.05,2.82.46,4.85,2.95,8.97,6.67,12.01,11.5.28.44.33.92.14,1.42Z"/>
    <path class="cls-15" d="m230,70.07c-3.52,8.62-5.79,17.55-6.8,26.8-.46.43-1.01.83-1.62.8-4.59-.23-8.75.83-12.33,3.85-.38.32-.94.15-1.38-.12-6.56-8.77-5.56-18.81,2.78-27.86.66-1.43,1.74-2.4,3.22-2.88,5.32-1.73,10.65-3.07,16.13-.59Z"/>
    <path class="cls-3" d="m230,70.07c-6.73-.41-13.43-.65-19.34,3.47-3.81-10.99-.23-20.61,9.75-26.18,8.23-1.28,13.59,2.62,17.27,9.55-2.56,4.39-5.11,8.77-7.67,13.16Z"/>
    <path class="cls-38" d="m207.87,101.4c4.33-4.16,9.56-5.26,15.33-4.53-.97,10.94.23,21.82.89,32.72-2.06-.41-4.19-.62-6.17-1.26-10.53-3.44-15.26-14.02-10.86-24.16.39-.9,1.07-1.69.81-2.77Z"/>
    <path class="cls-14" d="m314.66,32.89c-7.11-2-14.4-2.59-21.74-2.71-1.03-1.03-1.14-2.42-1.4-3.72-.79-3.98-1.65-7.92-3.59-11.54-.51-.96-1.02-1.99-.43-3.14,4.45-.57,8.91-.82,13.31.22,9.96,2.34,15.43,10.65,13.85,20.9Z"/>
    <path class="cls-28" d="m82.51,178.32c-2.2-2.82-4.89-5.06-7.92-6.91,11.74-7.07,24-13.03,37.17-16.96-3.99,5.56-8.69,10.18-14.96,13.33-5.29,2.67-9.94,6.46-14.29,10.53Z"/>
    <path class="cls-12" d="m255.45,40.66c-4.02-5.55-8.59-10.48-14.97-13.38,4.09-4.88,9.09-8.35,15.35-9.86.3,6.64.65,13.27,3.86,19.32.67,1.27-.02,1.79-.96,2.28-1.08.56-2.18,1.1-3.26,1.64Z"/>
    <path class="cls-25" d="m287.5,11.77c3.07,5.76,5.14,11.82,5.42,18.4-3.58.94-5.35-.1-6.32-4.04-1.5-6.04-5.38-11.03-9-16.03,3.46-.42,6.59,1.16,9.9,1.66Z"/>
    <path class="cls-18" d="m2.66,152.36c-.24-.26-.48-.52-.72-.79-.37-1.57.19-2.82,1.33-3.87.75.88.28,1.92.41,2.89-.09.74.24,1.71-1.02,1.77Z"/>
    <path class="cls-32" d="m3.33,150.7c-.02-1-.03-2-.05-3,.18-.43-.24-1.63.96-.74-.09,1.27-.19,2.53-.28,3.8-.24.3-.45.3-.63-.05Z"/>
    <path class="cls-22" d="m86.28,202.32c1.74-7.09,1.01-13.97-1.79-20.67,4.9-4.34,10.1-8.25,16.57-11.97-2.38,8.11-5.1,15.41-4.25,23.28-.76,2.24.32,4.97-2.06,6.85-.77.61.13,1.82.53,2.72,1.12,2.47,2.96,4.57,3.78,7.2.77,8.99,5.02,15.98,12.28,21.18,6.32,4.53,13.24,7.8,20.87,9.47,1.34.25,2.65.66,3.96,1.01,13.98,2.75,28,3.82,42.3,2.77,14.84-1.09,29.48-2.81,43.76-7.08,8.76-2.62,17.15-6.04,24.54-11.58,5.88-4.41,10.16-9.87,11.36-17.35.16-.99.57-1.91.99-2.81,2.24-3.83,2.23-3.75-2.14-4.24-1.4-.16-1.12-1.75-1.34-2.68-2.38-10.24-5.04-20.4-8.38-30.37-3.12-9.35-8.11-17.5-15.58-24.03-.97-.85-1.63-1.67-1.76-3.07-.37-3.95-.96-7.88-1.46-11.81,3.46-7.64,3.53-15.77,3.91-23.95.25-5.42.59-10.88,1.4-16.31,2.21-14.85,9.96-26.28,21.2-35.68,1.14-.96,2.24-2.02,3.5-2.78,4.21-2.54,6.98-5.85,6.58-11.09.4-1.24-.41-2.15-.91-3.11-5.05-9.55-4.9-19.5-2.39-29.66.64-2.61,2.07-2.72,4.1-1.69,3.98,2.02,6.94,5.23,9.66,8.61,4.23,5.26,7.43,11.09,8.87,17.78.2.94.67,1.83,1.01,2.75,2.32,3.47,5.57,4.65,9.66,4.24,4.13-.41,8.19.55,12.27,1,2.45.27,4.42,1.3,5.78,3.59,5.33,8.98,13.27,13.21,23.73,12.58,1.73-.1,3.48.25,5.2-.16,4.28,5.39,7.68,11.32,10.04,17.76,2.67,7.27,6.26,14.02,10.37,20.55,2.11,3.36,3.97,6.86,5.37,10.6,2.85,7.62,1.46,14.44-3.73,20.52-4.16,4.87-9.08,8.84-14.99,11.48-4.2,2.14-8.17.86-12.09-.84-7.69-3.32-13.76-8.93-20.1-14.17-4.32-3.57-8.54-7.29-13.64-9.79-8.3-4.07-16.11-1.56-20.57,6.65-3.38,6.22-3.56,12.9-2.64,19.67,1.49,11.05,5.04,21.59,8.2,32.22,3.57,11.99,6.36,24.07,5.68,36.76-.95,17.66-7.57,32.53-20.84,44.4-13.94,12.47-30.83,18.49-48.66,22.49-6.81,1.53-13.7,2.64-20.67,3.28-1.75.16-3.46.14-5.17-.26-13.72-3.86-27.43-2.57-41.15,0-8.24.87-16.07-1.35-23.86-3.44-15.03-4.03-29.17-10.02-41.34-20.03-4.17-3.43-7.74-7.37-10.41-12.1-2.36-4.17-3-8.19-.18-12.61,2.64-4.14,3.8-8.91,3.69-13.88-.08-3.49.24-6.96.36-10.44.15-.38.35-.73.58-1.05.06-.24.04-.48-.04-.72Z"/>
    <path class="cls-19" d="m198.61,276.58c17.08-1.92,33.98-4.69,49.94-11.45,16.75-7.1,30.78-17.41,38.66-34.41,7.45-16.08,7.31-32.73,3.1-49.6-3.21-12.89-7.98-25.35-10.5-38.42-1.23-6.39-1.89-12.81-.35-19.25.91-3.82,2.68-7.2,5.45-10.03,5.37-5.49,10.99-6.6,17.95-3.35,7.44,3.47,13.19,9.29,19.47,14.35,6.01,4.84,11.89,9.86,19.74,11.59,2.36.52,4.67.65,7.02.18-5.38,3.9-11.24,3.11-17,1.41-7.54-2.23-13.41-7.4-19.62-11.92-2.21-1.61-4.34-3.39-6.73-4.68-6.71-3.62-13.54-.34-15.08,7.09-1.88,9.03.24,17.8,1.86,26.58,1.6,8.7,4.75,16.96,8.07,25.07,6.03,14.73,9.07,29.87,7.99,45.78-.42.94-.15,2.03-.62,2.96-.68,2.76-2.1,5.26-4.34,6.78-11.17,7.59-19.25,17.8-25.58,29.51-4.79,8.85-12.98,12.97-22.02,15.22-16.81,4.18-33.68,3.47-50.36-1.15-2.37-.66-4.89-.89-7.04-2.25Z"/>
    <path class="cls-19" d="m86.32,203.96c.74,9.55.59,18.86-5.07,27.3-1.85,2.76-.28,5.85,1.06,8.51,3.34,6.62,8.69,11.46,14.6,15.71,14.85,10.66,31.7,16.3,49.5,19.48,3.67.65,7.37,1.1,11.06,1.64-8.62,2.21-17.46,3.15-26.24,4.38-5.19.73-10.38.77-15.59.72-8.92-.09-15.87-3.53-19.83-11.88-4.84-10.23-12.23-17.9-22.33-23.1-3.47-1.79-6.88-3.97-8.82-7.67-1.96-3.99-3.36-8.06-1.66-12.54,10.38-1.9,17.33-7.93,21.26-17.61.47-1.15,1.09-2.24.56-3.54.09-.26.19-.53.28-.79.23-.55.56-.91,1.22-.59Z"/>
    <path class="cls-22" d="m185.43,299.23c4.82-5.05,10.92-7.3,17.69-7.82,8.46-.65,16.93-.07,25.39.37,13.71.71,27.36.44,40.88-2.35,12.83-2.65,22.27-9.92,26.86-21.94,5.07-13.26,13.37-23.62,23.82-32.82,7.36-6.48,8.62-10.32,7.75-17.81,3.15,2.56,4.2,7.13,2.7,11.56-1.42,4.18-4.24,7.42-7.63,9.94-8.9,6.6-14.68,15.43-19.15,25.32-1.18,2.6-2.6,5.1-3.72,7.73-5.6,13.14-15.95,19.88-29.64,22.21-15.81,2.68-31.71,2.71-47.67,1.91-8.93-.45-17.89-1.45-26.81.37-3.62.74-6.87,2.53-10.48,3.35Z"/>
    <path class="cls-37" d="m52.15,250.89c9.1,1.65,15.36,7.18,19.93,14.84,1.71,2.87,3.22,5.9,4.43,9.01,5.68,14.66,17.07,20.48,31.99,21.14,11.65.52,23.36.78,34.45,5.14,2.08.82,4.13,1.69,6.19,2.53,0,1.44-.91.8-1.59.71-9.11-1.28-17.96-4.03-27.13-4.88-7.68-.71-15.38-1.12-23.06-1.8-8.3-.73-14.49-5.06-18.84-11.94-4.05-6.41-7.71-13.06-11.61-19.56-3.8-6.33-8.77-11.43-15.65-14.46-.08-.7.1-1.08.89-.74Z"/>
    <path class="cls-37" d="m248.47,308.64c-2.98,0-5.96.14-8.93-.02-16.97-.91-33.36,2.44-49.77,6.23-13.45,3.11-27.1,3.67-40.68.47-4.21-.99-8.4-2.31-11.19-6.85,4.96,1.37,9.41,2.86,13.96,3.81,15.96,3.34,31.7,1.3,47.26-2.59,12.11-3.03,24.19-5.83,36.82-4.11,4.23.58,8.48.99,12.59,2.14-.02.31-.04.61-.06.92Z"/>
    <path class="cls-24" d="m195.55,283.99c-11.13-1.86-22.29-2.22-33.48-.69-10.36,1.41-20.45,4.24-30.7,6.2-7.88,1.51-15.8,2.09-23.66-.26-3.73-1.12-7.11-2.83-10.63-6.31,4.83,2.03,8.66,3.99,12.94,4.79,9.88,1.85,19.34-.63,28.78-2.74,12.29-2.75,24.55-5.38,37.26-4.81,7.35.33,14.64,1.11,21.74,3.13-.28,1.76-1.39.82-2.25.69Z"/>
    <path class="cls-10" d="m62.99,226.49c.55,4.18,1.1,8.36,1.66,12.54-2.81-.49-3.66-2.63-4.02-5.01-.35-2.3-.44-4.65-.64-6.97,1-.19,2-.37,3.01-.56Z"/>
    <path class="cls-2" d="m195.55,283.99c.74-.25,1.69.17,2.25-.69.92.13,1.82.32,2.8,1.32-1.98.25-3.56.31-5.05-.62Z"/>
    <path class="cls-9" d="m52.15,250.89c-.3.25-.59.49-.89.74-.92-.21-1.88-.34-2.62-1.17,1.3-.4,2.45-.37,3.51.43Z"/>
    <path class="cls-16" d="m307.95,228.47c0-1.03-.31-2.12.62-2.96.21,0,.41,0,.61.04-.3,1.02-.32,2.16-1.23,2.92Z"/>
    <path class="cls-26" d="m147.55,304.26c.53-.24,1.06-.47,1.59-.71.57.17,1.6.57,1.27.95-.85.97-1.93.39-2.85-.24Z"/>
    <path class="cls-19" d="m99.93,201.27c.2-8.44.05-16.92,2.88-25.07,2.31-6.66,5.6-12.7,10.69-18.04,4.76,6.65,10.77,11.11,19.07,11.49,2.59.12,5.27.02,7.8-.5,13.17-2.72,17.75-11.96,12.5-25.42-1.15-2.96-1.46-4.04,2.43-4.45,7.66-.79,15.23-2.38,22.86-3.48,1.87-.27,2.85-1.13,3.62-2.72,1.47-3.04,3.27-5.86,5.67-8.28,1.35-1.36,2.43-1.62,3.4.34,1.1,2.23,2.45,4.35,3.3,6.67.84,2.28,1.98,3.16,4.56,3.27,18.96.79,33.09,9.44,42.06,26.34,1.15,2.17,1.21,3.46-.76,5.31-4.1,3.85-7.56,8.37-9.13,13.87-2.83,9.92,3.78,17.38,14.73,16.93,6.56-.27,6.52-.27,7.65,6.21.31,1.79-.12,3.05-1.51,4.24-3.9,3.35-8.21,6.03-12.85,8.2-.69.32-1.4,1.13-2.27.12-2.24-2.6-4.07-.68-5.62.81-2.54,2.45-3.46,5.72-3.61,9.16-.09,1.93-.38,3.57-2.68,3.7-2.43.13-3.54-1.31-3.97-3.57-1.06-5.53,1.99-12.95,6.7-15.98,1.16-.75,2.73-1.4,1.77-3.08-1.1-1.91-2.64-.69-3.85,0-4.81,2.76-6.82,7.36-7.98,12.48-.3,1.33-.59,2.66-.88,3.98-.68,1.31-2.04,1.34-3.21,1.58-21.58,4.37-43.32,6.25-65.32,4.24-3.15-.29-4.65-1.62-5.15-4.72-.56-3.5-2.1-6.54-5.73-8.82-.07,1.88,1.04,2.58,1.64,3.51,3,4.66,3.75,9.67,2.31,15.01-.47,1.74-1.34,3.24-3.04,4.06-2.96,1.42-5.82-.53-5.67-3.96.13-2.87.44-5.73-.95-8.41-1.06-2.04-2.33-3.41-5-2.64-3.62,1.05-6.47-1.23-9.43-2.69-3.49-1.72-6.84-3.56-7.54-8.06-.3-1.93-1.95-3.3-3.85-3.73-4.34-.98-6.42-3.36-5.59-7.9Z"/>
    <path class="cls-19" d="m259.13,205.35c.35,9.83-5.23,16.32-12.54,21.59-10.49,7.55-22.59,11.41-35.05,13.99-24.54,5.08-49.24,6.73-74.06,1.82-.59-.12-1.14-.39-1.72-.58,3.8-1.9,6.77-4.41,7.57-8.95.34-1.93,2.18-2.07,3.91-2.07,5.24-.02,10.41.87,15.66.87,16.38,0,32.57-1.67,48.67-4.55,1.95-.35,3.92-1,5.76.37,1.25,4.18,4.03,6.29,7.75,5.91,3.86-.4,5.6-2.48,6.08-7.06.17-1.63-.1-3.36,2.19-4.2,9.94-3.64,18.3-9.74,25.78-17.13Z"/>
    <path class="cls-31" d="m217.32,227.83c-5.37.8-10.74,1.62-16.11,2.41-18.01,2.64-36.08,3.82-54.24,1.85-2.11-.23-2.72.1-3.05,2.23-.86,5.53-3,7.42-8.16,7.84-1.14-.31-2.28-.61-3.43-.92-3.3-1.16-4.25-3.7-3.66-6.83.65-3.44-.56-5.11-3.94-6.27-8.27-2.82-16.11-6.57-22.41-12.88-1.56-1.56-3.38-2.98-3.76-5.39-1.63-2.77-3.24-5.54-4.89-8.29-.55-.92-.95-2.45-.02-2.6,4.03-.61,2.18-4.01,3.16-6.02.25,3.07-.72,6.39,1.76,9.03,1.33,1.42,1.17,0,1.36-.73,0,3.99,1.67,6.18,5.92,6.85,2.99.48,4.92,3.01,5.13,6.15.12,1.79.97,2.63,2.3,3.45,3.29,2.02,6.72,3.76,10.32,5.14.87.33,1.68,1.03,2.64-.05,2.03-2.29,3.61-.65,4.87.9,2.42,3,2.84,6.59,2.29,10.26-.31,2.04-.48,3.79,2.08,4.31,2.41.48,3.99-.74,4.46-2.92,1.34-6.16,1.46-12.18-3.69-16.93-1.02-.94-1.95-1.89-1-3.12,1.2-1.54,2.47-.39,3.53.44,2.99,2.35,4.67,5.6,5.1,9.24.32,2.7,1.37,3.41,3.96,3.64,22.26,1.97,44.24.05,66.05-4.46.85-.18,1.72-.26,2.59-.38,1.04,1.18.18,2.76.85,4.02Z"/>
    <path class="cls-19" d="m335.85,47.33c-6.49-.26-11.55-3.14-15.01-8.76-.73-1.18-1.24-2.2,0-3.61,8.74-9.87,17.32-19.89,28.12-27.66,1.7-1.22,3.55-2.33,5.48-3.1,3.12-1.25,4.57-.05,4.08,3.25-.53,3.58-1.77,6.96-3.19,10.27-4.11,9.6-9.37,18.59-14.7,27.54-1.19,2-2.77,2.23-4.78,2.07Z"/>
    <path class="cls-1" d="m265.05,39.34c1.58,4.35,1.01,6.33-2.43,9.12-3.58,2.9-7.13,5.84-10.62,8.84-12.47,10.71-17.09,24.91-18.26,40.73-.55,7.44,0,14.95-1.38,22.34-.6,3.23-1.81,6.2-3.89,8.77-2.06-6.5-1.57-13.25-1.68-19.88-.22-13.26,1.57-26.25,7.18-38.45,6.55-14.23,17.25-24.41,31.08-31.48Z"/>
    <path class="cls-30" d="m342.03,55.27c-5.15,2.48-10.36,1.43-15.44-.02-6.1-1.75-10.89-5.58-13.87-11.12-1.71-3.18-4.19-3.86-7.22-4.17-4.7-.48-9.4-.72-14.12-.7-3.39.01-5.64-1.6-5.98-5.23,8.8-.17,17.6-.57,26.28,1.48,2.45.58,4.33,1.38,5.61,4.01,3.06,6.29,8.24,10.24,15.3,11.04,3.85.43,7.38.97,9.46,4.71Z"/>
    <path class="cls-3" d="m86.32,203.96c-.41.2-.81.4-1.22.59-14.3,6.56-28.47,3.86-42.42-1.04-12.81-4.49-23.91-11.56-31.82-23-5.88-8.5-8.36-17.93-8.2-28.16.22-.55.44-1.1.66-1.65.21.02.42.04.63.05,1.11,19.54,12.43,31.21,29.68,38.08,13.29,5.29,27.52,7.27,41.2,11.22,3.8,1.1,7.65,2,11.48,3,0,.31,0,.61,0,.92Z"/>
    <path class="cls-30" d="m98.56,209.88c7.24,8.92,16.75,14.47,27.54,17.7,3.58,1.07,4.29,2.86,3.61,5.77-.76,3.28.1,5.81,2.61,7.9-11.66-2.69-22.09-7.53-29.3-17.54-2.92-4.05-5.1-8.53-4.47-13.82Z"/>
    <path class="cls-4" d="m268.47,17.79c7.08,3.81,11.7,14.36,9.89,21.92-.75,3.13-2.26,1.38-3.41.58-6.05-4.17-8.83-13.79-6.47-22.51Z"/>
    <path class="cls-20" d="m325.24,70.15c.04,4.21-2.95,7.34-7.11,7.42-4.34.09-7.6-3.1-7.55-7.38.05-4.12,3.23-7.28,7.33-7.28,4.15,0,7.29,3.11,7.33,7.24Z"/>
    <path class="cls-22" d="m188.12,140.24c11.93.67,22.93,2.26,33.09,7.49,2.55,1.31,5,2.83,6.75,5.17.79,1.05,1.86,2.25.92,3.69-1.03,1.58-2.64.98-4.08.74-.47-.08-.91-.38-1.36-.6-13.8-6.79-28.36-10.36-43.76-10.5-1.66-.02-3.99.24-4.18-2-.17-2.06,2.07-2.76,3.69-3.04,3.17-.56,6.41-.7,8.93-.95Z"/>
    <path class="cls-35" d="m151.2,186.31c-.12.3-.22.67-.4.98-.72,1.26-8.93,5.07-10.27,4.72-1.69-.44-2.17-1.54-1.42-3.1,1.08-2.22,8.29-5.25,10.54-4.56,1.03.31,1.25,1.08,1.54,1.95Z"/>
    <path class="cls-7" d="m197.91,176.94c2.12,0,4.2.34,6.17,1.12,1.19.47,2.29,1.24,1.96,2.76-.32,1.51-1.63,1.83-2.9,1.7-2.34-.23-4.65-.65-6.98-.97-1.51-.21-3.21-.37-3.05-2.41.15-1.88,1.75-2.16,3.32-2.2.5-.01.99,0,1.49,0Z"/>
    <path class="cls-6" d="m179.78,178.82c1.33,3.41.72,5.43-2.29,6.24-3.24.87-6.63,1.25-9.98,1.58-2.02.2-3.53-.87-4.24-2.91-.26-.75-.56-1.57.19-2.01.95-.55,1.29.32,1.45,1.06.17.8.64,1.31,1.28,1.74,2.25,1.49,4.4.44,4.75-2.36.09-.75-.03-1.6.9-1.77.32-.06,1.06.43,1.08.7.17,2.03.75,3.26,3.19,2.65,2.19-.55,3.1-1.85,3.05-4.01,0-.19.26-.39.62-.91Z"/>
    <path class="cls-33" d="m169.91,144.67c-.23,1.61-1.09,2.71-2.63,2.73-1.71.02-2.85-1.11-2.74-2.84.09-1.51,1.19-2.54,2.75-2.49,1.55.05,2.38,1.14,2.62,2.59Z"/>
    <path class="cls-27" d="m227.88,214.13c-2.6,4.58-4.19,8.44-4.27,12.76-2.11-4.48-.61-9.37,4.27-12.76Z"/>
    <path class="cls-27" d="m137.04,234.57c.32-5.31.39-9.67-1.96-14.1,4.07,2.81,5.11,9.2,1.96,14.1Z"/>
    <path class="cls-36" d="m135.07,201.3c-.5,1.45-1.98,1.74-3.15,2.15-1.31.47-2.89,2.81-3.96.86-.67-1.23,1.97-1.62,3.09-2.42.79-.56,1.76-.88,2.64-1.3.71-.34,1.16-.13,1.37.71Z"/>
    <path class="cls-21" d="m218.42,182.88c.83.15,1.81-.34,1.89.83.05.8-.73.96-1.29,1.03-2.15.27-4.26,1.23-6.47.47-.13-.05-.28-.55-.21-.62,1.77-1.71,4.25-.81,6.08-1.72Z"/>
    <path class="cls-11" d="m212.27,188.62c3.07-1.12,5.28.25,7.59.39.34.02.86.57.92.94.09.61-.61.87-1.02.78-2.3-.53-4.88-.11-7.48-2.11Z"/>
    <path class="cls-17" d="m134.91,196.96c-2.72,1.95-5.28,1.49-7.61,1.99-.4.09-1.03-.14-1.06-.77-.03-.58.42-.95.9-.95,2.36,0,4.64-1.51,7.76-.27Z"/>
    <path class="cls-37" d="m352.24,9.28c-8.83,10.4-17.07,21.14-27.25,30.26-1.36-1.93-.43-3.1.29-4.16,6.9-10.22,15.92-18.35,25.64-25.77.33-.25.88-.23,1.33-.33Z"/>
    <path class="cls-5" d="m316.11,68.12c-.1.9-.65,1.27-1.5,1.18-.83-.08-1.39-.59-1.33-1.42.06-.85.73-1.25,1.54-1.2.82.06,1.34.52,1.29,1.43Z"/>
  </g>
</svg>