<?xml version="1.0" encoding="UTF-8"?>
<svg id="katman_2" data-name="katman 2" xmlns="http://www.w3.org/2000/svg" viewBox="0 0 249.08 237.66">
  <defs>
    <style>
      .cls-1 {
        fill: #fdd210;
      }

      .cls-1, .cls-2, .cls-3 {
        stroke-width: 0px;
      }

      .cls-2 {
        fill: #f7f7f7;
      }

      .cls-3 {
        fill: #15140c;
      }
    </style>
  </defs>
  <g id="katman_1" data-name="katman 1">
    <path class="cls-3" d="m22.55,126.26c1.56-12.45,2.31-24.58,4.85-36.46.13-.62.22-1.5-.11-1.93-5.62-7.37-2.19-14.64.8-21.43,4.92-11.2,14.08-18.8,24.2-25.17,2.74-1.72,3.81-3.24,3.32-6.61-1.5-10.19-.53-20.17,3.27-29.87,1.49-3.81,3.89-4.91,7.69-4.44,9.12,1.12,16.64,5.37,23.3,11.45,4.44,4.05,8.6,8.39,11.9,13.42,1.48,2.25,3.12,2.9,5.7,2.86,9.32-.15,18.65-.16,27.98,0,2.6.04,4.13-.73,5.68-2.88,5.89-8.14,12.39-15.99,21.63-20.29,19.88-9.26,21.02-5.61,24.6,12.89,1.14,5.89.75,11.99-.18,17.91-.39,2.46.13,3.55,2.19,4.63,16.59,8.71,25.2,23.53,30.62,40.65,1.39,4.39,1.12,8.78-3.59,11.27-3.07,1.63-.9,3.79-.87,5.62.05,2.81-.07,6.01,1.21,8.3,1.59,2.84,5.11.7,7.75,1.09,15.73,2.35,25.5,15.22,24.55,32.76-1.02,18.69-11.15,31.39-29.15,36.18-2.61.69-3.2,2.56-4.17,4.43,1.74,1.12,3.16-.34,4.67-.73,6.75-1.74,10.99-.46,13.34,4.25,3.03,6.08,1.61,12.54-3.71,16.46-4.26,3.15-9.27,4.44-14.36,5.23-5.92.92-11.95,1.67-17.91.94-5.01-.61-9.48.74-14.05,2.21-.92.3-2.29.34-2.22,1.47.04.79.95,1.77,1.73,2.24,1.55.93,3.25,1.62,4.92,2.32,4.63,1.94,6.43,5.28,5.27,9.91-1.06,4.24-5.55,7.62-9.83,6.61-9.35-2.21-16.98-6.95-20.03-16.68-.83-2.64-1.86-3.28-4.44-3.27-25.98.08-51.96.11-77.94-.05-3.54-.02-4.99,1.24-5.89,4.48-1.03,3.74-.43,7.25.37,10.83,1.13,5.11-.33,8.31-4.65,10.04-4.56,1.84-9.25.31-11.42-4.17-3.1-6.4-3.21-13.13-1.3-19.91.55-1.96,1.26-3.13-1.81-4.16-22.43-7.57-33.81-22.98-35.04-46.75-.11-2.16-.33-4.35-.13-6.49.57-6.27,1.24-11.46-7.61-13.48-6.7-1.53-10.52-8.36-12.94-14.94-1.93-5.27.24-10.02,4.98-11.99,4.81-2.01,7.98-.46,11.01,5.2,1.23,2.3,2.44,4.72,5.86,6.05Zm-8.58-.23l-.07-.02c.62-1.52-.81-2.33-1.18-3.51-.86-2.75-2.42-4.56-5.45-3.11-2.9,1.39-3.28,3.79-2.02,6.7,2.45,5.65,5.91,10.38,11.76,12.8,1.29.53,3.67,2.25,4.28.2.72-2.43,2.48-6.12.07-7.75-2.51-1.7-4.42-4.28-7.39-5.31Zm31.62-47.93l-.05.11c2.82-.04,3.69,1.2,3.36,4.07-.4,3.44-.51,6.99-.16,10.43.45,4.41,3.18,6.16,7.69,5.52,3.24-.46,4.38-2.45,5.14-5.21,1.25-4.55.78-9.26,1.4-13.86.19-1.39.64-2.74,2.2-2.94,1.3-.17,2.45.7,2.31,1.99-.41,3.74,2.15,2.89,4.14,2.85,15.63-.31,31.25-.67,46.87-.98,17.13-.33,34.24.76,51.36,1.09,1.36.03,3.61,1.27,3.58-1.76-.02-1.87.5-3.53,2.72-3.15,2.03.35,2.16,2.28,2.16,3.98-.01,4.34.36,8.64,1.24,12.88.81,3.9,3.41,5.25,7.3,5.14,3.94-.11,5.31-2.54,5.52-5.73.25-3.8-.02-7.63-.13-11.44-.04-1.31.38-2.41,1.59-2.79,1.29-.4,2.51.34,2.63,1.61.33,3.28,2.56,3.21,4.96,3.33,2.82.13,5.62.55,8.44.79,1.46.13,3.22-.28,2.7,2.25-.17.84.11,1.71,1.18,1.82,1.32.13,1.67-.89,1.88-1.87.4-1.84.09-3.61-.8-5.27-3.73-11.91-8.92-22.91-19.26-30.68-3.26-3.14-7.23-5.22-11.15-7.34-2.13-1.15-3-2.36-2.42-5.12,1.98-9.38,1.58-18.68-1.18-28-1.39-4.71-3.65-5.4-7.92-4.17-12.36,3.56-20.51,12.29-27.93,22.04-1.35,1.78-2,4.31-4.65,4.88-12.62-.45-25.25-.43-37.87,0-2.08-.39-2.75-2.26-3.78-3.7-3.39-4.74-7.05-9.24-11.37-13.16-5.34-4.84-11.24-8.7-18.39-10.37-3.32-.77-5.39-.22-6.62,3.6-3.04,9.42-3.52,18.91-1.54,28.47.65,3.13-.27,4.49-2.79,5.87-3.76,2.06-7.44,4.32-10.54,7.37-10.18,7.66-18.01,16.7-17.81,30.44,0,.92-.54,2.57.48,2.57,4.24-.03,8.5-.27,12.7-.83,2.46-.33,1.18-3.5,2.79-4.7Zm148.69,23.39c-1.3-.86-2.01.22-2.87.55-8.51,3.2-15.46-.77-16.91-9.69-.11-.66-.07-1.34-.18-1.99-1.33-7.75.77-6.7-8.03-7.19-6.65-.37-13.32-.29-19.97-.59-24.99-1.12-49.95-.05-74.92.48-2.93.06-4.07.84-4.16,3.92-.08,2.94-.73,5.96-1.63,8.78-1.72,5.39-5.29,7.43-11.6,7.28-5.3-.13-8.17-3.07-9.54-7.89-.69-2.42-1-4.88-.93-7.4.03-.92.38-2.01-.77-2.65-3.11-1.74-10.07,1.15-10.68,4.71-1.32,7.69-2.74,15.4-3.39,23.16-.38,4.51,2.04,8.68,5.19,11.86,5.64,5.68,5.18,12.36-.18,18.32-4.43,4.92-8.4,11-7.93,18.03,1.56,23.16,13.09,41.68,41.1,45.26,9.29,1.19,9.51,1.44,9.73-7.5.43-17.46,7.5-30.47,24.3-36.97,10.46-4.05,21.22-5.02,32.29-2.23,20.29,5.1,30.46,17.39,31.26,38.21.08,2,.15,4,.08,5.99-.07,1.96.3,3.01,2.69,3.01,19.99-.03,40.67-9.5,46.5-34.29.8-3.39-.22-3.56-2.89-3.51-4.87.1-9.72-.69-14.14-2.58-8.25-3.54-15.74-8.61-24.69-10.89-5.13-1.31-6.66-6.78-4.75-11.43,1.94-4.71,5.22-6.06,10.91-4.44,1.64.47,2.99,1.06,3.86-1.3,2.02-5.49,5.83-9.6,10.6-12.9.82-.57,2.41-.91,1.14-2.55-5.68-7.32-3.69-14.52.52-21.58Zm-6.6,57.45c7.33,5.82,15.14,7.28,23.29,7.91,3.27.25,4.35-.98,4.44-4.21.28-10.17-.18-20.3-.98-30.43-.06-.78-.31-2.21-.54-2.22-6.25-.33-12.21-2.14-18.23-3.57-.11-.03-.26.2-.41.26-4.96,2.24-9.97,8.69-10.98,14.3.7-.15,1.36-.2,1.95-.43,1.57-.62,3.38-1.55,4.17.71.83,2.4-1.22,3.1-2.98,3.71-3.5,1.2-6.88.49-10.2-.79-2.17-.84-4.35-1.28-5.46,1.4-1.11,2.68-.36,5.15,2.38,6.23,7.39,2.92,14.79,4.14,21.63-1.45,1.41-1.15,2.82-2.28,4.22-.46,1.33,1.74-.14,3.06-1.36,4.23-2.81,2.71-6.54,3.61-10.93,4.8Zm30.1,12.76c17.78-2.73,29.58-21.13,26.1-38.88-2.84-14.5-10.71-21.5-23.26-20.97-2.61.11-3.8.89-3.08,3.45,1.49,5.32.94,10.82,1.45,16.22.83,8.74,1.49,17.6.97,26.34-.26,4.51,3.79,9.45-2.17,13.83Zm-17.94,30.17c4.54,0,8.03.34,11.44-.08,5.72-.7,11.57-1.4,16.3-5.2,3.5-2.81,3.74-6.5,1.91-10.29-1.88-3.88-5.34-2.65-8.24-1.81-3.63,1.05-7.5,2.27-9.86,5.35-3.22,4.2-6.8,7.99-11.55,12.01Zm-15.77,25.01c2.57.17,4.05-1.1,4.7-3.51.63-2.33-.76-3.39-2.64-4.03-3.04-1.03-6.33-2.18-7.81-4.99-2.2-4.18-5.45-3.28-8.84-2.96-1.9.18-2.01,1.03-1.54,2.69,1.5,5.25,10.63,12.6,16.13,12.8Zm-122.54-6.74c.11,3.9.59,7.02,1.93,9.92,1.03,2.21,2.85,3.39,5.27,2.59,2.46-.81,3.08-2.52,2.21-5.13-1.28-3.85-.97-7.85-.54-11.86.15-1.47,2.98-4.02-1.05-4.45-2.64-.28-5.86-1.45-6.72,2.78-.46,2.27-1.31,4.49-1.11,6.16Zm133.68-121.54c4.18-1.62,5.93-4.37,8.19-6.4,1.72-1.55,5.65-2.19,4.79-4.84-.98-3.02-4.89-1.28-7.42-2.08-2.46-.78-3.62.17-3.34,2.94.33,3.26-.21,6.45-2.21,10.38Z"/>
    <path class="cls-1" d="m194.28,101.5c-4.22,7.06-6.2,14.27-.52,21.58,1.27,1.64-.32,1.98-1.14,2.55-4.77,3.3-8.58,7.42-10.6,12.9-.87,2.36-2.23,1.76-3.86,1.3-5.69-1.63-8.97-.27-10.91,4.44-1.91,4.64-.39,10.12,4.75,11.43,8.95,2.28,16.44,7.35,24.69,10.89,4.42,1.9,9.27,2.68,14.14,2.58,2.67-.05,3.68.12,2.89,3.51-5.83,24.8-26.51,34.26-46.5,34.29-2.39,0-2.76-1.06-2.69-3.01.08-1.99,0-4-.08-5.99-.8-20.82-10.97-33.11-31.26-38.21-11.07-2.78-21.83-1.82-32.29,2.23-16.8,6.5-23.87,19.51-24.3,36.97-.22,8.94-.44,8.69-9.73,7.5-28.01-3.59-39.54-22.11-41.1-45.26-.47-7.03,3.51-13.11,7.93-18.03,5.36-5.96,5.83-12.64.18-18.32-3.16-3.18-5.57-7.35-5.19-11.86.65-7.76,2.07-15.47,3.39-23.16.61-3.56,7.57-6.45,10.68-4.71,1.15.64.8,1.73.77,2.65-.07,2.52.24,4.98.93,7.4,1.38,4.82,4.24,7.76,9.54,7.89,6.3.15,9.87-1.88,11.6-7.28.9-2.82,1.54-5.83,1.63-8.78.09-3.08,1.23-3.86,4.16-3.92,24.97-.53,49.94-1.6,74.92-.48,6.65.3,13.33.22,19.97.59,8.8.49,6.7-.56,8.03,7.19.11.65.07,1.33.18,1.99,1.45,8.93,8.4,12.89,16.91,9.69.86-.32,1.57-1.41,2.87-.55Zm-39.31,8.74c.86-.33,1.5-.5,2.08-.81,2.14-1.16,6.88,1.12,6.43-2.14-.5-3.65-5.24-2.29-8.17-2.14-3.33.16-7.19,1.16-7.58,5-.34,3.33,3.41,4.12,5.97,4.85,2.6.75,6.24,3.89,7.77.81,1.06-2.13-3.65-3.33-5.86-4.84-.13-.09-.21-.23-.64-.73Zm-67.74.15c-1.97,1.28-3.9,2.49-5.78,3.77-.69.47-1.3,1.17-.88,2.09.43.94,1.41.85,2.16.65,3.36-.88,6.73-1.76,9.72-3.63,2.9-1.81,2.91-4.04.35-5.95-3.87-2.89-8.33-2.87-12.82-1.7-.98.25-1.85.91-1.55,2.14.22.92,1.01,1.21,1.91,1.27,2.3.16,4.69-.18,6.9,1.35Zm33.59-2c-2.54,6.08-4.63,6.47-8.76,1.67-.46-.53-.82-1.14-1.55-.83-1.04.44-.66,1.3-.42,2.09.58,1.9,1.81,3.5,3.72,3.6,4.69.25,9.43.44,14.08-.03,2.98-.3,4.12-2.7,3.32-5.7-1.73,2.51-3.35,4.33-6.78,4.06-3.48-.27-1.19-3.89-3.61-4.87Zm-48.64,13.14c-3.25-1.72-6.55-1.72-9.84,0,3.23,1.25,6.49,1.37,9.84,0Zm97.6,0c3.24.9,6.54,1.85,10.8-.33-4.3-1.38-7.54-1.22-10.8.33Zm-96.18,4.49c-4.94-.22-7.96,1-11.73,3.7,4.72.19,7.71-1.09,11.73-3.7Zm96.06.37c2.81,1.97,5.72,3.52,9.19,2.93-2.69-2.26-5.65-3.6-9.19-2.93Z"/>
    <path class="cls-2" d="m214.85,80.96c.89,1.66,1.19,3.43.8,5.27-.21.98-.56,2-1.88,1.87-1.07-.11-1.35-.98-1.18-1.82.52-2.54-1.25-2.13-2.7-2.25-2.81-.24-5.62-.66-8.44-.79-2.4-.11-4.63-.04-4.96-3.33-.13-1.27-1.34-2.01-2.63-1.61-1.21.38-1.63,1.48-1.59,2.79.11,3.81.38,7.65.13,11.44-.21,3.19-1.58,5.62-5.52,5.73-3.89.11-6.49-1.25-7.3-5.14-.88-4.24-1.25-8.54-1.24-12.88,0-1.69-.12-3.63-2.16-3.98-2.21-.38-2.74,1.28-2.72,3.15.03,3.02-2.23,1.78-3.58,1.76-17.12-.33-34.23-1.42-51.36-1.09-15.63.3-31.25.67-46.87.98-1.99.04-4.55.89-4.14-2.85.14-1.29-1.01-2.17-2.31-1.99-1.56.21-2.01,1.55-2.2,2.94-.63,4.6-.15,9.31-1.4,13.86-.76,2.76-1.89,4.75-5.14,5.21-4.52.64-7.24-1.11-7.69-5.52-.35-3.44-.24-6.98.16-10.43.33-2.87-.54-4.11-3.36-4.07.08-2.31,2.38-2.37,3.64-3.42,9.09-7.6,8.37-18.34-1.74-24.17,3.1-3.04,6.78-5.3,10.54-7.37,2.53-1.38,3.44-2.74,2.79-5.87-1.98-9.56-1.5-19.05,1.54-28.47,1.23-3.82,3.29-4.37,6.62-3.6,7.15,1.67,13.05,5.53,18.39,10.37,4.33,3.92,7.99,8.42,11.37,13.16,1.03,1.44,1.7,3.31,3.78,3.7,3.25,8.2,9.7,12,18.1,12.2,9,.21,15.94-3.65,19.77-12.19,2.65-.57,3.29-3.1,4.65-4.88,7.43-9.75,15.58-18.47,27.93-22.04,4.27-1.23,6.53-.54,7.92,4.17,2.76,9.31,3.15,18.62,1.18,28-.58,2.76.29,3.97,2.42,5.12,3.92,2.12,7.89,4.2,11.15,7.34-11.21,7.25-10.93,19.11.73,25.93,5.67,3.31,11.89,4.96,18.52,4.75ZM67.43,29.32q.05,9.51,8.57,7.24c.16-.04.31-.12.46-.18,3.15-1.41,8.67.25,9.28-3.16.42-2.34-3.88-5.73-6.4-8.34-2.7-2.78-5.85-7.51-9.4-6.05-3.61,1.49-2.3,7.06-2.52,10.49Zm105.14.73c-.21-2.68.12-5.82-.81-8.92-.82-2.78-2.04-3.55-4.56-1.88-5.2,3.45-9.1,8.18-12.84,13.05-1.62,2.11-.14,2.39,1.56,2.7,2.76.49,5.53,1.01,8.24,1.71,8.28,2.15,8.27,2.18,8.41-6.66Zm-14.9,28.07c-.12,3.65,3,6.95,6.75,7.14,4.16.21,7.42-2.74,7.49-6.8.07-3.75-2.95-7.06-6.67-7.3-3.83-.25-7.45,3.08-7.57,6.96Zm-79.94-6.97c-3.86,0-7.29,3.52-7.16,7.36.12,3.74,3.29,6.74,7.12,6.76,4.22.02,7.12-2.97,7-7.21-.11-3.8-3.24-6.92-6.96-6.91Zm30.34,6.26c-2.08,3.64-.67,6.64,2.54,7.55,6.73,1.89,13.82,1.67,20.56.07,3.51-.83,4.79-4.06,2.49-8.06-.53,4.27-2.37,6.62-6.81,7.22-5.7.77-3.95-4.4-5.86-6.76-2.8,6.69-2.81,6.56-5.58,6.68-4.67.19-6.33-2.7-7.33-6.7Z"/>
    <path class="cls-1" d="m187.68,158.95c4.39-1.2,8.11-2.1,10.93-4.8,1.22-1.17,2.69-2.49,1.36-4.23-1.4-1.82-2.81-.69-4.22.46-6.84,5.59-14.25,4.37-21.63,1.45-2.74-1.08-3.5-3.54-2.38-6.23,1.11-2.68,3.29-2.23,5.46-1.4,3.32,1.28,6.7,1.99,10.2.79,1.76-.6,3.81-1.31,2.98-3.71-.79-2.26-2.6-1.34-4.17-.71-.59.23-1.25.28-1.95.43,1.02-5.61,6.02-12.06,10.98-14.3.15-.07.3-.29.41-.26,6.03,1.43,11.98,3.24,18.23,3.57.22.01.47,1.44.54,2.22.8,10.13,1.26,20.26.98,30.43-.09,3.23-1.17,4.46-4.44,4.21-8.15-.63-15.96-2.09-23.29-7.91Zm1.33-11.87c-4.79,1.26-9.37-.48-14.82-1.35,4.82,4.09,10.31,4.52,14.82,1.35Z"/>
    <path class="cls-1" d="m217.79,171.7c5.96-4.38,1.91-9.32,2.17-13.83.51-8.74-.14-17.59-.97-26.34-.51-5.4.04-10.9-1.45-16.22-.72-2.56.47-3.34,3.08-3.45,12.55-.54,20.42,6.46,23.26,20.97,3.48,17.75-8.32,36.15-26.1,38.88Zm22.65-33.6c-.48-7.92-2.66-15.39-9.7-20.53-1.63-1.19-3.83-1.99-5.35.04-1.46,1.96.82,2.95,1.86,3.91,5.22,4.8,7.31,10.94,7.89,17.74.22,2.64.15,5.31.27,7.96.04.92-.32,2.24.92,2.54,1.52.36,1.82-1.05,2.23-2.1,1.18-2.96,1.57-6.08,1.87-9.56Z"/>
    <path class="cls-1" d="m47.44,50.63c10.1,5.83,10.83,16.57,1.74,24.17-1.26,1.05-3.55,1.1-3.64,3.42,0,0,.05-.11.05-.11-5.42.46-10.38,3.4-15.96,2.96-.2-13.74,7.62-22.78,17.81-30.44Z"/>
    <path class="cls-1" d="m214.85,80.96c-6.63.2-12.85-1.44-18.52-4.75-11.66-6.81-11.94-18.68-.73-25.93,10.33,7.77,15.53,18.77,19.26,30.68Z"/>
    <path class="cls-1" d="m140.35,32.56c-3.83,8.54-10.77,12.4-19.77,12.19-8.4-.19-14.85-4-18.1-12.2,12.62-.43,25.25-.44,37.87,0Z"/>
    <path class="cls-1" d="m199.85,201.87c4.75-4.03,8.32-7.82,11.55-12.01,2.36-3.08,6.24-4.3,9.86-5.35,2.9-.84,6.36-2.08,8.24,1.81,1.83,3.79,1.59,7.48-1.91,10.29-4.73,3.8-10.58,4.5-16.3,5.2-3.4.41-6.89.08-11.44.08Z"/>
    <path class="cls-1" d="m13.98,126.03c2.97,1.02,4.88,3.61,7.39,5.31,2.41,1.63.65,5.32-.07,7.75-.61,2.05-2.98.34-4.28-.2-5.85-2.42-9.31-7.15-11.76-12.8-1.26-2.91-.89-5.32,2.02-6.7,3.03-1.45,4.59.36,5.45,3.11.37,1.18,1.81,1.99,1.17,3.51-3.06.21-2.12-4.31-5.06-4.35,1.14,6.55,5.34,10.87,11.19,11.54-1.4-2.93-6.36-2.84-6.05-7.17Z"/>
    <path class="cls-1" d="m184.08,226.88c-5.5-.2-14.63-7.55-16.13-12.8-.47-1.66-.35-2.51,1.54-2.69,3.39-.32,6.64-1.21,8.84,2.96,1.48,2.82,4.77,3.96,7.81,4.99,1.88.64,3.27,1.7,2.64,4.03-.65,2.4-2.13,3.68-4.7,3.51Zm2.84-5.15c-4.63-2.35-9.62-4.2-12.43-9.06,1.52,6.09,6.4,9.62,12.43,9.06Z"/>
    <path class="cls-1" d="m61.54,220.14c-.2-1.67.65-3.88,1.11-6.16.86-4.23,4.08-3.06,6.72-2.78,4.03.44,1.2,2.98,1.05,4.45-.42,4.01-.73,8.01.54,11.86.87,2.61.24,4.32-2.21,5.13-2.42.8-4.25-.39-5.27-2.59-1.35-2.9-1.83-6.02-1.93-9.92Zm5.52-8.07c-4.55,5.57-4.76,11.44-1.06,16.36-.75-5.08-1.46-10.16,1.06-16.36Z"/>
    <path class="cls-1" d="m195.22,98.61c2-3.93,2.55-7.12,2.21-10.38-.28-2.77.88-3.72,3.34-2.94,2.53.8,6.44-.94,7.42,2.08.86,2.65-3.06,3.28-4.79,4.84-2.25,2.03-4.01,4.78-8.19,6.4Z"/>
    <path class="cls-2" d="m29.63,81.07c5.59.44,10.54-2.5,15.96-2.96-1.61,1.19-.33,4.37-2.79,4.7-4.2.56-8.46.8-12.7.83-1.01,0-.47-1.65-.48-2.57Z"/>
    <path class="cls-3" d="m154.98,110.24c.43.5.52.64.64.73,2.22,1.51,6.92,2.71,5.86,4.84-1.53,3.08-5.17-.06-7.77-.81-2.57-.73-6.31-1.52-5.97-4.85.39-3.84,4.26-4.84,7.58-5,2.93-.14,7.67-1.5,8.17,2.14.45,3.26-4.29.98-6.43,2.14-.57.31-1.22.48-2.08.81Z"/>
    <path class="cls-3" d="m87.24,110.39c-2.21-1.54-4.6-1.19-6.9-1.35-.9-.06-1.68-.35-1.91-1.27-.3-1.23.57-1.89,1.55-2.14,4.49-1.17,8.95-1.19,12.82,1.7,2.56,1.91,2.55,4.14-.35,5.95-2.99,1.87-6.37,2.75-9.72,3.63-.75.2-1.73.29-2.16-.65-.42-.92.19-1.62.88-2.09,1.88-1.28,3.82-2.49,5.78-3.77Z"/>
    <path class="cls-3" d="m120.83,108.38c2.42.98.13,4.6,3.61,4.87,3.44.26,5.06-1.55,6.78-4.06.8,3.01-.35,5.4-3.32,5.7-4.65.47-9.39.28-14.08.03-1.9-.1-3.14-1.69-3.72-3.6-.24-.79-.62-1.65.42-2.09.73-.31,1.09.3,1.55.83,4.13,4.79,6.22,4.41,8.76-1.67Z"/>
    <path class="cls-3" d="m72.19,121.53c-3.35,1.36-6.61,1.24-9.84,0,3.29-1.71,6.59-1.71,9.84,0Z"/>
    <path class="cls-3" d="m169.79,121.52c3.26-1.55,6.49-1.71,10.8-.33-4.26,2.18-7.56,1.22-10.8.33Z"/>
    <path class="cls-3" d="m73.61,126.01c-4.03,2.61-7.02,3.9-11.73,3.7,3.78-2.7,6.79-3.93,11.73-3.7Z"/>
    <path class="cls-3" d="m169.67,126.38c3.55-.67,6.51.67,9.19,2.93-3.47.59-6.38-.97-9.19-2.93Z"/>
    <path class="cls-1" d="m67.43,29.32c.22-3.43-1.1-9,2.52-10.49,3.54-1.46,6.7,3.27,9.4,6.05,2.52,2.6,6.82,5.99,6.4,8.34-.61,3.41-6.13,1.75-9.28,3.16-.15.07-.3.14-.46.18q-8.52,2.27-8.57-7.24Z"/>
    <path class="cls-1" d="m172.58,30.04c-.14,8.84-.13,8.8-8.41,6.66-2.71-.7-5.48-1.22-8.24-1.71-1.7-.3-3.18-.59-1.56-2.7,3.75-4.87,7.64-9.6,12.84-13.05,2.53-1.67,3.74-.9,4.56,1.88.92,3.11.6,6.24.81,8.92Z"/>
    <path class="cls-3" d="m157.67,58.11c.13-3.88,3.75-7.2,7.57-6.96,3.72.24,6.74,3.54,6.67,7.3-.08,4.06-3.33,7.01-7.49,6.8-3.75-.19-6.87-3.49-6.75-7.14Z"/>
    <path class="cls-3" d="m77.74,51.14c3.71,0,6.85,3.11,6.96,6.91.12,4.24-2.77,7.23-7,7.21-3.83-.02-7-3.03-7.12-6.76-.12-3.84,3.3-7.36,7.16-7.36Z"/>
    <path class="cls-3" d="m108.08,57.4c1,4,2.67,6.89,7.33,6.7,2.78-.11,2.78.01,5.58-6.68,1.92,2.35.17,7.53,5.86,6.76,4.44-.6,6.28-2.95,6.81-7.22,2.3,4,1.02,7.22-2.49,8.06-6.75,1.6-13.83,1.82-20.56-.07-3.21-.9-4.62-3.91-2.54-7.55Z"/>
    <path class="cls-2" d="m189.01,147.08c-4.51,3.17-10,2.74-14.82-1.35,5.45.86,10.03,2.6,14.82,1.35Z"/>
    <path class="cls-2" d="m240.43,138.11c-.3,3.48-.69,6.6-1.87,9.56-.42,1.05-.72,2.46-2.23,2.1-1.24-.29-.88-1.61-.92-2.54-.13-2.65-.05-5.32-.27-7.96-.58-6.8-2.67-12.94-7.89-17.74-1.05-.96-3.33-1.95-1.86-3.91,1.52-2.04,3.72-1.24,5.35-.04,7.04,5.15,9.23,12.61,9.7,20.53Z"/>
    <path class="cls-2" d="m13.98,126.03c-.31,4.33,4.65,4.23,6.05,7.17-5.84-.67-10.05-4.99-11.19-11.54,2.94.03,2,4.56,5.06,4.35,0,0,.08.02.08.02Z"/>
    <path class="cls-2" d="m186.92,221.73c-6.03.55-10.9-2.98-12.43-9.06,2.81,4.86,7.8,6.71,12.43,9.06Z"/>
    <path class="cls-2" d="m67.06,212.07c-2.52,6.2-1.81,11.28-1.06,16.36-3.7-4.92-3.49-10.79,1.06-16.36Z"/>
  </g>
</svg>