<?xml version="1.0" encoding="UTF-8"?>
<svg id="katman_2" data-name="katman 2" xmlns="http://www.w3.org/2000/svg" viewBox="0 0 335.16 335.15">
  <defs>
    <style>
      .cls-1 {
        fill: #f7a825;
      }

      .cls-1, .cls-2, .cls-3, .cls-4, .cls-5, .cls-6, .cls-7, .cls-8 {
        stroke-width: 0px;
      }

      .cls-2 {
        fill: #f7a725;
      }

      .cls-3 {
        fill: #f39221;
      }

      .cls-4 {
        fill: #f7a826;
      }

      .cls-5 {
        fill: #424143;
      }

      .cls-6 {
        fill: #f39322;
      }

      .cls-7 {
        fill: #fff;
      }

      .cls-8 {
        fill: #fec822;
      }
    </style>
  </defs>
  <g id="Layer_1" data-name="Layer 1">
    <g>
      <path class="cls-8" d="m111.34,258.79c-1.49-2.99-1.47-6.21-1.48-9.44-.02-14.3-9.89-24.16-24.21-24.21-10.9-.04-19.05-5.16-22.81-14.34-3.78-9.23-1.73-18.36,5.84-25.96,10.5-10.55,10.35-24.22-.4-35.08-12.4-12.53-7.95-33.15,8.35-38.67,2.37-.8,4.81-1.42,7.33-1.21,14.98,1.27,26.83-10.66,26.03-25.92-.48-9.14,4.27-16.04,12.36-20.19,7.9-4.05,15.87-3.77,23.41,1.16,1.65,1.08,3.1,2.5,4.51,3.9,10.37,10.21,24.17,10.17,34.56-.14,9.33-9.26,21.73-10.24,31.72-2.4,5.87,4.61,8.72,10.81,8.53,18.24-.14,5.53.89,10.71,4.1,15.23,4.62,6.5,10.97,9.98,19.03,10.1,3.59.05,7.21-.18,10.56,1.49,2.34,8.86.82,16.74-5.84,23.36-3.11,3.09-5.85,6.45-7.17,10.76-.29.94-.69,1.9-1.85,2.15-1.96-.36-1.86-2.15-2.3-3.47-7.93-23.7-23.34-40.74-46.78-49.16-30.21-10.85-57.85-5.22-81.36,16.92-17.93,16.88-25.32,38.31-23.42,62.61,1.37,17.53,8.45,32.88,20.53,45.9,9.39,10.12,20.65,17.14,33.66,21.52,1.17.4,2.4.73,3.18,1.84,0,1.5-1.26,1.76-2.26,2.1-4.15,1.38-7.44,4.02-10.44,7.05-6.63,6.69-14.51,8.22-23.39,5.88Z"/>
      <path class="cls-3" d="m262.65,180.65c2.35,2.56,4.96,4.93,6.99,7.72,5.46,7.49,5.95,15.64,1.93,23.86-4.04,8.26-10.76,12.73-20.13,12.94-13.48.3-21.72,5.68-25.06,16.36-.93,2.97-1.37,6.04-1.21,9.17.52,10.36-6.56,18.56-14.27,21.54-9.47,3.66-17.98,2.01-25.42-4.94-1.63-1.52-3.21-3.11-4.82-4.66,1.39-1.25,2.56-.13,3.74.39,16.22,7.14,32.04-3.06,32.23-20.8.16-15.36,10.25-25.44,25.62-25.6,17.74-.19,27.92-16.01,20.77-32.24-.52-1.18-1.65-2.35-.38-3.73Z"/>
      <path class="cls-1" d="m262.65,180.65c1.66,4.73,3.89,9.16,3.73,14.53-.37,12.29-10.28,22.49-22.68,22.42-7.23-.04-13.69,1.49-19.05,6.78-4.81,4.76-6.97,10.49-6.98,17.07-.01,5.86-1.13,11.19-4.85,16.01-6.75,8.72-19.82,11.64-29.45,6.2-.87-.49-1.59-1.21-2.7-1-.58-.03-1.06-.22-1.27-.82-.83-1.37-2.38-2.09-3.2-3.45-.48-.79-1.33-1.68.24-2.29,3.25.09,6.14,1.77,9.47,1.78,13.3.04,22.4-8.27,23.28-21.56.04-.62.07-1.24.21-1.85.25-1.02.94-1.73,1.76-2.31,7.96-5.62,14.65-12.51,20.41-20.34.73-.99,1.49-2,2.77-2.37,5.11-.45,10.1-1.11,14.42-4.37,7.5-5.65,10.9-15.62,8.2-24.61-.39-1.3-.99-2.56-.89-3.98.53-1.6,1.45-.82,2.27-.33,1.38.83,2.11,2.39,3.48,3.23.59.21.79.69.82,1.26Z"/>
      <path class="cls-1" d="m270.05,281.06c-6.22-6.23-12.51-12.4-18.64-18.71-3.28-3.38-3.15-7.86-.02-10.97,3.14-3.12,7.58-3.24,10.98.05,6.32,6.13,12.48,12.42,18.71,18.65,1.39,8.16-2.71,12.25-11.03,10.99Z"/>
      <path class="cls-1" d="m67.29,78.29c-5.99-5.99-12.02-11.93-17.95-17.98-3.43-3.49-3.49-8.21-.36-11.34,3.12-3.12,7.84-3.06,11.35.37,6.05,5.92,11.99,11.96,17.98,17.96,1.71,3.78,1.23,6.52-1.63,9.38-2.85,2.85-5.52,3.31-9.38,1.62Z"/>
      <path class="cls-3" d="m261.82,179.39c-2.7.14-3.15-2.99-5.31-3.64-1.6.09-1.81-1.29-2.41-2.26-6.45-12.39-5.05-22.5,4.81-32.54,6.33-6.44,7.67-13.89,5.37-22.32-.38-1.38-1.32-2.76-.25-4.25,5.8,2.77,8.22,8.13,9.5,13.79,1.76,7.84,0,15.28-5.92,20.92-9.31,8.86-11.24,18.79-5.78,30.3Z"/>
      <path class="cls-3" d="m175.7,256.57c.79,2.05,3.73,2.61,3.68,5.25-7.82-3.83-15.64-4.34-23.45.03-2.65,1.48-4.62,3.74-6.79,5.79-10.44,9.83-27.17,8.14-35.14-3.53,1.25-1.19,2.59-.48,3.84-.09,9.13,2.82,16.97,1.08,23.88-5.84,8.15-8.17,18.82-10.74,30.81-4.81,1.33.79,2.66,1.6,3.17,3.2Z"/>
      <path class="cls-3" d="m280.43,46.88c3.48-.57,5.66,1.35,7.15,4.07,1.77,3.22,1.07,6.37-1.34,8.95-3.58,3.82-7.34,7.47-11.05,11.17-4.23,4.23-8.45,8.48-12.74,12.65-2.47,2.4-5.47,2.99-8.62,1.67-2.97-1.24-4.8-3.47-4.65-6.92,3.67-1.46,6.28-4.27,8.98-6.99,5.32-5.36,10.63-10.73,16.03-16.01,2.58-2.53,5.05-5.08,6.24-8.59Z"/>
      <path class="cls-3" d="m78.47,249.18c3.42-.14,5.63,1.65,6.9,4.6,1.21,2.82,1.04,5.77-1.13,7.99-8.15,8.34-16.38,16.59-24.72,24.73-2.43,2.37-5.58,2.75-8.6,1.05-2.69-1.51-4.6-3.68-4.03-7.13,3.51-1.19,6.06-3.67,8.59-6.25,5.28-5.4,10.65-10.71,16.01-16.03,2.72-2.7,5.53-5.3,6.99-8.97Z"/>
      <path class="cls-1" d="m172.71,254.31c-4.1-1.28-7.96-3.08-12.5-3.13-6.67-.07-12.43,2.24-16.74,6.78-8.12,8.55-17.26,10.44-28.01,6.31-.44-.17-.97-.11-1.47-.16-1.3-1.57-2.33-3.27-2.67-5.32,2.62-1.12,5.21.22,7.86.1,4.91-.23,9.45-1.52,12.88-4.87,4.48-4.38,9.21-8.13,15.18-10.16.56-.59,1.32-.83,2.04-.64,6.89,1.82,13.99,1.58,21,2.12.87.41,1.61.87.47,1.81-.89.73-2.15.23-3.02.78,1.68,2.16,4.94,2.98,4.97,6.4Z"/>
      <path class="cls-1" d="m264.02,114.38c2.3,6.42,3.44,12.84.88,19.53-1.34,3.49-3.73,6.05-6.21,8.66-7.19,7.57-9.44,16.27-5.88,26.3.58,1.65,2.12,2.79,2.21,4.64-2.78.02-3.89-2.35-5.41-3.97-1.76-1.87-3.24-4.03-4.27-6.45-.51-3.99-1.1-7.97-1.87-11.92-.25-1.29-.71-2.64.33-3.84,2.13-6.08,6.06-10.84,10.42-15.51,4.59-4.92,5.27-11.3,4.31-17.8-.14-.97-.78-1.88.26-2.69,2.18.27,3.81,1.47,5.23,3.04Z"/>
      <path class="cls-6" d="m41.01,159.91c4.42.03,7.31,2.38,8.03,6.54.62,3.57-1.9,7.44-5.68,8.55-1.18.35-2.44.55-3.67.55-10.22.04-20.44.08-30.66,0-5.84-.04-8.88-2.86-9.03-8.04,1.43-1.33,3.22-1.12,4.94-1.12,8.06-.04,16.13-.29,24.17.08,5.57.26,9.72-1.11,11.9-6.56Z"/>
      <path class="cls-6" d="m167.51,0c4.67.13,7.82,2.7,7.93,7.53.26,11.2.24,22.41.02,33.62-.09,4.7-4.08,8.18-8.22,8-4.29-.19-7.29-3.51-7.32-8.1,5.7-2.24,6.78-6.69,6.54-12.3-.34-7.92-.11-15.87-.07-23.81,0-1.71-.21-3.51,1.12-4.94Z"/>
      <path class="cls-6" d="m327.57,159.88c4.41.34,7.15,2.71,7.53,6.5.44,4.34-1.66,7.54-5.8,8.67-1.18.32-2.43.5-3.66.51-10.05.04-20.1.06-30.16,0-5.33-.03-7.79-1.8-9.14-6.33-.6-2.83,1.6-2.67,3.2-2.77,4.09-.24,8.19-.08,12.29-.1,4.34-.01,8.72-.32,13.03.07,5.79.52,10.25-.92,12.71-6.56Z"/>
      <path class="cls-6" d="m169.23,286.35c4.18,1.25,6.23,3.56,6.28,8.02.14,10.79.16,21.59,0,32.39-.08,5.2-3.38,8.38-8.01,8.39-4.52,0-7.25-2.71-7.62-7.57.7-.52,1.31-1.16,2.12-1.51,3.31-1.41,4.39-4.04,4.37-7.47-.04-8.81-.03-17.63,0-26.44,0-1.36-.07-2.74.26-4.08.33-1.35.95-2.33,2.6-1.72Z"/>
      <path class="cls-1" d="m327.57,159.88c-.73,5.66-2.86,7.61-8.39,7.62-9.78,0-19.56,0-29.34.02-1.4,0-3.13-.49-3.49,1.72-.78-5.55,2.09-9.35,7.61-9.41,11.2-.12,22.4.03,33.6.06Z"/>
      <path class="cls-1" d="m169.23,286.35c-2.2.36-1.71,2.08-1.72,3.49-.02,9.78,0,19.56-.02,29.34,0,5.53-1.95,7.66-7.61,8.4-.04-11.2-.18-22.41-.07-33.61.06-5.52,3.85-8.39,9.41-7.61Z"/>
      <path class="cls-1" d="m167.51,0c0,11.02,0,22.05-.02,33.07-.01,5.25-2.34,7.67-7.57,7.97-.05-11.14-.19-22.28-.1-33.41.04-4.8,2.74-7.25,7.69-7.63Z"/>
      <path class="cls-1" d="m41.01,159.91c-.22,5.07-2.65,7.56-7.56,7.58-11.15.04-22.3.02-33.45.02.39-4.94,2.82-7.64,7.62-7.69,11.13-.1,22.26.04,33.39.09Z"/>
      <path class="cls-4" d="m280.43,46.88c.36,2.45-.68,4.3-2.37,5.98-7.77,7.72-15.52,15.47-23.25,23.24-1.58,1.59-3.34,2.57-5.63,2.37-.38-2.62.9-4.55,2.62-6.28,7.57-7.58,15.14-15.15,22.71-22.72,1.64-1.64,3.45-2.86,5.92-2.59Z"/>
      <path class="cls-4" d="m78.47,249.18c.2,2.29-.79,4.05-2.37,5.63-7.77,7.73-15.52,15.47-23.24,23.25-1.68,1.69-3.53,2.73-5.98,2.37-.26-2.31.78-4.09,2.33-5.65,7.74-7.75,15.48-15.51,23.25-23.23,1.64-1.63,3.55-2.74,6.01-2.37Z"/>
      <path class="cls-6" d="m270.05,281.06c.45-.19.88-.5,1.34-.54,7.5-.64,8.46-1.61,9.13-9.13.04-.45.37-.88.56-1.32,1.85,1.82,3.86,3.5,5.5,5.49,2.79,3.39,2.44,7.84-.59,10.71-2.96,2.8-7.17,3.03-10.44.3-1.98-1.66-3.68-3.66-5.5-5.51Z"/>
      <path class="cls-6" d="m67.29,78.29c8.41.7,11.68-2.57,11.01-11,1.87,1.82,3.87,3.53,5.58,5.49,2.99,3.43,2.79,8.19-.27,11.09-2.97,2.82-7.53,2.89-10.81-.01-1.95-1.72-3.67-3.7-5.5-5.57Z"/>
      <path class="cls-3" d="m243.79,147.34c.87,5.47,2.51,10.84,2.3,16.47,1.74,3.67,1.2,7.59.85,11.34-1.08,11.63-4.81,22.48-10.56,32.64-.57,1.01-1.31,1.79-2.3,2.36-6.8,9.17-14.5,17.43-23.94,23.95-1.81,2.76-4.87,3.82-7.59,5.18-8.17,4.09-16.9,6.52-25.97,7.64-1.81.22-3.73.57-5.34-.83-8.09.28-16.12-.19-24-2.24-29.43-9.08-48.86-28.21-56.23-58.21-6.01-24.48-.71-47.07,14.94-67,12.46-15.86,28.83-25.48,48.62-28.68,22.7-3.66,43.39,1.65,61.64,15.87,13.81,10.77,22.56,24.89,27.56,41.5Z"/>
      <path class="cls-8" d="m234.09,210.15c5.69-10.36,10.17-21.13,11.65-33,.56-4.45.16-8.9.36-13.35,3.05,3.17,5.15,7.21,8.92,9.7.5.75,1,1.49,1.5,2.24,1.84,5.05,3.04,10.16,1.95,15.6-2.35,11.75-12.19,19.54-24.37,18.8Z"/>
      <path class="cls-8" d="m171.26,246.09c12.24-.27,23.63-3.56,34.25-9.63,1.5-.86,3.09-1.58,4.64-2.36.89,15.17-11.17,26.08-26.23,24.62-2.78-.27-5.48-1.4-8.22-2.14-1-.76-1.99-1.51-2.99-2.27-1.77-2.84-4.63-4.6-7.14-6.96,1.89-1.27,4.15.29,5.69-1.26Z"/>
      <path class="cls-5" d="m167.55,109.09c32.39.02,58.37,26.04,58.35,58.46-.02,32.39-26.04,58.37-58.46,58.35-32.38-.02-58.36-26.05-58.34-58.46.02-32.4,26.03-58.37,58.45-58.35Z"/>
      <path class="cls-1" d="m96.41,154.41c.92-4.8,2.14-10.03,4.34-14.89,10.19-22.49,27.27-36.82,51.27-42.8,1.43-.36,2.94-.4,4.38-.76,2.08-.52,3.13.56,3.52,2.32.39,1.79-.16,3.02-2.32,3.44-5.85,1.13-11.6,2.59-17.05,5.15-20.36,9.56-33.06,25.25-38.03,47.19-.14.6-.15,1.25-.37,1.82-.54,1.44-1.19,2.82-3.14,2.57-1.54-.2-2.54-1.6-2.6-4.03Z"/>
      <path class="cls-2" d="m100.89,167.69c-.34,1.6-1.24,2.69-2.96,2.73-1.89.05-2.72-1.43-2.7-2.9.02-1.65.93-3.2,3.01-2.93,1.66.22,2.54,1.36,2.65,3.1Z"/>
      <path class="cls-7" d="m143.06,153.18c2.87,0,5.74-.13,8.6.03,3.26.19,5.09-1.18,6.03-4.29,1.84-6.06,3.9-12.06,5.82-18.1.64-2,1.4-3.77,3.92-3.8,2.51-.03,3.35,1.66,4,3.69,1.89,5.92,3.99,11.77,5.73,17.74.99,3.41,2.8,4.91,6.42,4.78,5.73-.2,11.47,0,17.2-.08,2.45-.04,4.58.39,5.4,2.97.83,2.63-.87,4.15-2.79,5.53-4.76,3.41-9.41,6.97-14.23,10.28-2.57,1.77-3.22,3.74-2.2,6.68,2.13,6.1,3.99,12.29,6.05,18.41.65,1.93.84,3.73-.91,5.08-1.88,1.46-3.72.8-5.47-.48-5.02-3.68-10.14-7.24-15.07-11.03-2.8-2.16-5.18-2.27-8.04-.05-4.82,3.74-9.86,7.2-14.78,10.81-1.81,1.33-3.68,2.35-5.78.83-2.17-1.57-1.5-3.71-.82-5.77,1.94-5.9,3.78-11.84,5.86-17.69,1.1-3.1.32-5.12-2.38-6.95-4.84-3.29-9.48-6.86-14.24-10.28-1.83-1.32-3.35-2.83-2.63-5.26.77-2.56,2.82-3.17,5.32-3.08,2.99.11,5.98.03,8.98.03Z"/>
    </g>
  </g>
</svg>