<?xml version="1.0" encoding="UTF-8"?>
<svg id="katman_2" data-name="katman 2" xmlns="http://www.w3.org/2000/svg" viewBox="0 0 373.59 341.66">
  <defs>
    <style>
      .cls-1 {
        fill: #030401;
      }

      .cls-1, .cls-2, .cls-3, .cls-4, .cls-5, .cls-6, .cls-7, .cls-8, .cls-9, .cls-10, .cls-11 {
        stroke-width: 0px;
      }

      .cls-2 {
        fill: #ffd406;
      }

      .cls-3 {
        fill: #040501;
      }

      .cls-4 {
        fill: #030304;
      }

      .cls-5 {
        fill: #ffd405;
      }

      .cls-6 {
        fill: #010202;
      }

      .cls-7 {
        fill: #030404;
      }

      .cls-8 {
        fill: #fff;
      }

      .cls-9 {
        fill: #050601;
      }

      .cls-10 {
        fill: #191702;
      }

      .cls-11 {
        fill: #111101;
      }
    </style>
  </defs>
  <g id="Layer_1" data-name="Layer 1">
    <g>
      <path class="cls-6" d="m185.22,341.64c-17.32-.12-34.65-.18-51.91-1.75-25.2-2.3-50.23-5.7-72.77-18.26C27.49,303.23,7.88,275.22,1.79,237.77c-2.98-18.31-2.02-36.48,1.2-54.61.36-2,.38-3.96.38-5.94-.01-31.25,5.37-61.37,19.7-89.38,15.54-30.36,39.51-50.65,72.86-59.25,1.83-.47,2.94-1.5,3.91-3.06,3.67-5.94,7.72-11.6,12.68-16.57,7.83-7.84,16.82-9.97,27.3-6.04,6.78,2.54,13.02,6.11,19.33,9.55,1.81.99,3.57,1.51,5.64,1.5,13.84-.06,27.68-.06,41.52,0,2.07,0,3.81-.52,5.64-1.5,7.52-4.05,14.85-8.55,23.25-10.71,8.63-2.22,15.94.27,22.3,6.16,5.53,5.12,9.79,11.26,13.81,17.57.89,1.39,1.78,2.38,3.58,2.85,40.08,10.51,65.37,36.97,80.04,74.7,8.09,20.82,12.21,42.55,12.6,64.79.22,12.16,2.93,23.92,3.62,35.96,2.26,39.61-7.66,74.67-37.9,102.19-17.71,16.11-38.91,24.95-62.13,29.46-24.92,4.84-50.15,5.91-75.45,6.21-3.48.04-6.97,0-10.45,0Z"/>
      <path class="cls-4" d="m293.21,20.57c2.19.15,3.4-1.28,4.89-2.04,2.27-1.14,4.47-1.34,5.81,1.11,1.27,2.33.3,4.41-1.89,5.72-3.75,2.24-7.68,4.07-12.16,4.23-3.89.14-5.08-1.11-4.24-4.92.77-3.5,1.98-6.89,2.86-10.37.26-1.02,1.34-2.29.37-3.13-1.12-.97-2.2.44-3.28.83-1.63.58-3.26,1.19-4.83,1.92-2.08.97-3.86.44-4.75-1.45-.94-1.97-1.04-4.26,1.27-5.58,4.1-2.35,8.43-4.24,13.16-4.88,4.12-.56,6.71,2.19,5.87,6.37-.82,4.06-2.01,8.05-3.07,12.18Z"/>
      <path class="cls-7" d="m341.1,47.8c2.28-1.23,3.68-2.01,5.1-2.75,1.98-1.03,3.91-1.11,5.26.93,1.35,2.03.66,3.95-1.17,5.2-3.84,2.62-8.02,4.43-12.81,4.49-2.83.03-3.94-1.34-3.35-3.98.73-3.26,1.58-6.5,2.52-9.71.39-1.33.84-2.58.38-4.25-2.55,1.03-5.05,1.97-7.48,3.04-2.13.94-3.67.33-4.64-1.64-1.04-2.1-.51-4.01,1.53-5.13,3.6-1.97,7.35-3.68,11.42-4.4,5.01-.88,7.45,1.68,6.32,6.62-.82,3.59-1.89,7.12-3.08,11.56Z"/>
      <path class="cls-4" d="m358.86,8.01c-2.8,1.15-5.15,2.17-7.54,3.09-2.04.79-4.11.83-5-1.54-.8-2.11-.51-4.22,1.88-5.36,3.79-1.8,7.53-3.79,11.83-4.15,4.34-.36,5.92,1.24,5.63,5.58-.27,4.06-2.25,7.72-2.94,11.82,2.27.13,3.54-1.48,5.19-2.18,1.96-.82,3.71-.7,4.94,1.1,1.37,2.01.69,3.94-1.09,5.22-3.78,2.72-8.07,4.38-12.73,4.65-3.03.18-4.06-1.46-3.53-4.56.76-4.46,2.95-8.59,3.34-13.68Z"/>
      <path class="cls-5" d="m182.32,240.81c0,22.44-.05,44.87.06,67.31.01,2.72-.56,3.51-3.43,3.55-20.31.28-40.59,1.13-60.79,3.49-2.69.32-4.93,1.1-4.53,4.12.4,3.02,2.89,3.16,5.5,2.9,19.85-1.95,39.73-3.27,59.68-3.38,2.67-.02,3.82.4,3.56,3.37-.29,3.34-.17,6.73-.03,10.09.08,1.95-.51,2.58-2.5,2.51-11.21-.4-22.43-.45-33.63-1.08-16.9-.94-33.74-2.6-50.29-6.43-32.06-7.42-57.64-24.09-74.26-52.99-12.44-21.64-15.88-45.3-14.18-69.88.39-5.58,1.33-11.11,1.9-16.68.25-2.42,1.36-3.53,3.78-4.14,35.03-8.88,70.69-12.68,106.75-13.56,19.44-.47,38.87-.81,58.32-.2,3.48.11,4.18,1.18,4.16,4.44-.14,22.19-.08,44.37-.08,66.56Z"/>
      <path class="cls-5" d="m229.37,169.46c31.4.58,58.43,1.69,85.24,5.34,15,2.04,29.77,5.61,44.5,9.16,1.46.35,2.37.91,2.65,2.58,4.44,27.04,3.81,53.69-7.72,79.04-14.43,31.73-39.54,51.03-72.79,60.18-16.5,4.54-33.42,6.47-50.46,7.55-12.19.78-24.4,1.06-36.6,1.53-4.06.16-5.11-1.15-4.7-4.9.31-2.83.16-5.73.03-8.59-.09-1.91.47-2.6,2.49-2.58,19.45.18,38.86.98,58.21,2.98,2.23.23,4.48.31,6.7.58,2.58.31,4.62-.28,4.82-3.2.19-2.65-1.55-3.59-4.01-3.86-21.45-2.27-42.96-3.44-64.53-3.63-2.8-.02-3.75-.56-3.74-3.61.11-44.88.11-89.75,0-134.63,0-2.82.79-3.47,3.5-3.57,13.58-.47,27.17-.45,36.39-.37Z"/>
      <path class="cls-5" d="m192.12,162.4c1.49-2.87,2.88-5.61,4.33-8.32,1.17-2.17,1.22-4.24-1.13-5.44-2.29-1.16-4.02-.05-5.16,2.17-1.58,3.1-3.4,6.08-4.83,9.25-.97,2.17-2.31,2.72-4.6,2.68-17.07-.32-34.15-.44-51.22-.12-22.8.43-45.54,1.76-68.17,4.35-.49-.76.09-1.18.42-1.63,8.69-12.07,10.96-25.58,9.15-40.06-.38-3.08-.78-6.14-1.57-9.14-.3-1.13-.39-2.03,1.39-2.23,13.57-1.48,24.91-8.18,35.69-15.89,2.66-1.9,5.11-2.45,8.18-1.96,8.26,1.3,16.39.43,24.3-2.2,7.06-2.34,12.41-6.79,15.56-13.6.81-1.76,1.75-2.32,3.63-2.23,20.68.98,41.37.39,62.05-.05,5.61-.12,11.22-.11,16.73-1.3,2.06-.44,3.22.62,4.52,1.87,11.55,11.06,23.81,21.19,38.09,28.61,6.44,3.35,13.19,5.84,20.43,6.7,1.87.22,2.34.72,1.85,2.5-2.04,7.52-2.37,15.2-1.92,22.92.1,1.72-.31,3.12-1.19,4.55-3.7,6-5.66,12.48-4.58,19.55.43,2.79-1.2,1.75-2.34,1.67-25.11-1.9-50.26-2.75-75.45-2.65-7.94.03-15.87,0-24.16,0Z"/>
      <path class="cls-8" d="m360.4,168.38q1.26,8.69-6.93,6.96c-9.48-1.99-18.95-4.01-28.45-5.92-1.43-.29-2.53-.88-3.59-1.78-8.82-7.49-13.35-17.11-14.28-28.55-.84-10.21,1.07-20.05,4.2-29.67,1.24-3.81,3.55-7.11,6.36-10,1.77-1.82,2.12-3.76.14-5.51-1.86-1.64-3.62-.93-5.23.7-2.83,2.87-5.1,6.15-6.71,9.8-.87,1.98-1.98,2.42-3.99,2.32-5.58-.28-10.76-1.99-15.71-4.31-14.71-6.89-27.06-17.06-39.08-28.36,4.75-1.97,8.94-4.23,12.65-7.3,1.97-1.63,3.01-3.62,1.16-5.75-1.71-1.97-3.74-1.35-5.58.24-6.93,5.98-15.27,7.98-24.13,8.58-25.77,1.76-51.55,2.09-77.36.81-6.72-.33-13.42-.82-20.11-1.54-6.76-.73-12.63-3.56-17.86-7.77-2.01-1.62-4.11-2.34-5.86-.18-1.79,2.21-.48,4.12,1.46,5.71,3.68,3.02,7.79,5.29,12.57,7.19-9.8,9.36-20.03,17.78-31.61,24.48-6.91,4-14.06,7.34-22.18,8.2-2.7.29-4.4-.2-5.48-2.94-1.28-3.25-3.46-6.01-5.8-8.62-1.68-1.86-3.56-3.08-5.75-1.11-2.19,1.97-1.18,3.87.49,5.8,12.09,14.07,13.86,42.95,4.22,58.76-5.1,8.36-12.45,11.71-21.66,13.02-7.61,1.08-15.13,2.89-22.59,4.77-3.12.79-3.75-.02-3.36-2.84.22-1.6.24-3.22.35-4.84,1.03-.64,2.16-.65,3.25-.29,3.38,1.11,6.77.57,9.93-.44,14.71-4.69,26.46-13.28,33.5-27.29,5.94-11.83.97-23.43-11.4-28.08-6.86-2.57-13.93-2.28-21.03-1.98-1.21.05-2.46.66-3.54-.4,12.94-37.63,36.8-64.17,76.23-74.74,3.62-.97,6.11-2.51,8.04-5.76,3.81-6.42,8.18-12.46,13.87-17.44,4.52-3.96,9.63-4.94,15.28-3.34,9.05,2.55,16.89,7.65,25.1,11.98,1.35,2.62,1.1,5.57,1.7,8.35,1.47,6.83,3.71,13.32,9.68,17.55,13.51,9.57,30.93,2.81,36.21-13.76,1.25-3.91,1.06-8.17,3.16-11.83,6.5-3.36,12.88-6.96,19.51-10.03,11.73-5.42,17.83-3.94,26.29,5.76,3.94,4.52,7.23,9.49,10.38,14.57.96,1.55,2.05,2.68,3.92,3.12,38.91,9.21,63.25,34.43,77.5,70.69.63,1.6,1.06,3.28,1.58,4.92-1.1,1.01-2.35.42-3.56.37-8.62-.39-17.19-.66-25.1,3.82-7.74,4.38-11.57,13.08-9.1,21.6,2.91,10.05,9.66,17.28,17.87,23.26,6.5,4.73,13.52,8.32,21.65,9.56,3.08.47,5.83-1.41,8.81-.51Z"/>
      <path class="cls-5" d="m21.38,110.25c8.46-1.2,16.88-1.46,25.08,1.5,12.25,4.42,17.83,16.2,12.28,27.96-7.9,16.75-21.46,26.7-39.7,30.16-2.91.55-5.56-.95-8.37-1.14-.22-7.68.67-15.27,1.78-22.82,1.73-11.7,3.99-23.3,8.19-34.43.17-.44.49-.82.74-1.23Z"/>
      <path class="cls-5" d="m360.4,168.38c-4.29,1.92-8.73,1.97-13.11.64-14.37-4.36-25.87-12.72-33.33-25.83-8.56-15.03-1.23-29.85,15.85-32.91,6.68-1.19,13.34-1.1,20.02,0,3.98,8.42,5.6,17.52,7.39,26.54,1.99,10.07,2.96,20.28,3.5,30.53.02.34-.21.69-.32,1.03Z"/>
      <path class="cls-5" d="m210.64,21.25c-.67,8.17-2.47,15.98-7.76,22.53-10.05,12.44-30.5,10.76-38.32-3.16-3.42-6.08-4.88-12.7-4.67-19.67,15.56,0,31.11.01,46.67.04,1.36,0,2.71.18,4.07.27Z"/>
      <path class="cls-8" d="m37.34,212.8c-3.25-.1-6.7.39-7.15-1.41-.61-2.48,2.81-3.35,4.78-4.38,10.25-5.38,21.36-8.1,32.68-9.94,23.99-3.9,48.14-3.73,72.3-2.19,4.33.28,8.67.92,12.78,2.47,1.37.51,3.13,1.05,3.11,2.81-.02,1.82-1.62,2.7-3.18,3.28-2.93,1.11-6.02,1.68-9.12,1.81-14.07.58-28.14,1.26-42.22,1.47-15.61.24-31.01,2.36-46.46,4.2-6.18.74-12.37,1.33-17.53,1.88Z"/>
      <path class="cls-8" d="m46.75,253.77c-1.17-.12-3.4-.33-5.63-.56-1.13-.12-2.53-.31-2.84-1.39-.41-1.41,1.03-2.12,2.03-2.78,3.45-2.3,7.33-3.65,11.26-4.85,11.12-3.39,22.6-4.95,34.12-5.88,13.16-1.06,26.37-1.66,39.58-1.29,7.82.22,15.7.22,23.42,1.89.49.11,1.02.08,1.47.26,2.11.86,5.5.81,5.56,3.55.07,3.16-3.35,3.75-5.81,4.26-9.93,2.06-20.06,2.04-30.12,2.4-19.67.69-39.31,1.67-58.9,3.63-4.33.43-8.71.48-14.13.76Z"/>
      <path class="cls-8" d="m130.67,281.56c6.74-.04,13.46.08,20.08,1.5.97.21,1.93.5,2.84.88,1.15.49,2.38,1.11,2.37,2.58,0,1.37-1.01,2.29-2.11,2.89-2.44,1.35-5.15,1.73-7.9,1.95-10.57.85-21.18.87-31.76.67-15.35-.3-30.59,1.97-45.93,1.63-1.49-.03-3-.08-4.45-.39-1.02-.22-2.5-.37-2.65-1.67-.16-1.38,1.31-1.67,2.28-2.09,5.3-2.29,10.97-3.22,16.61-4.07,16.77-2.52,33.67-3.44,50.61-3.9Z"/>
      <path class="cls-8" d="m258.11,194c22.14-.12,42.85,1.07,63.05,6.82,6.47,1.84,12.81,4.05,18.53,7.7,1.03.66,2.6,1.42,2.37,2.63-.3,1.54-2.21,1.41-3.44,1.47-7.12.38-14.16-.81-21.19-1.65-15.69-1.88-31.34-4.05-47.2-4.26-13.95-.18-27.9-.87-41.84-1.47-3.21-.14-6.44-.68-9.44-1.99-1.41-.62-2.81-1.5-2.77-3.18.04-1.57,1.55-2.12,2.83-2.62,4.22-1.65,8.69-2.18,13.13-2.59,9.06-.83,18.16-1.06,25.97-.87Z"/>
      <path class="cls-8" d="m260.9,237.11c14.34.18,28.62,1.02,42.78,3.33,9.09,1.48,18.1,3.32,26.39,7.6,1.6.83,4.03,1.71,3.68,3.67-.33,1.82-2.85,1.49-4.52,1.67-8.99.94-17.91-.38-26.81-1.16-16.63-1.45-33.29-2.14-49.96-2.83-9.69-.4-19.44-.34-29.01-2.19-2.87-.56-6.96-.91-6.94-4.38.02-3.31,4.15-3.37,6.82-3.85,12.44-2.23,25.02-2.14,37.59-1.85Z"/>
      <path class="cls-8" d="m241.33,281.53c20.5.85,41.03,1.45,61.17,6.02,2.55.58,5.07,1.28,7.35,2.59,1.54.88,1.48,1.88-.16,2.66-1.5.71-3.11.79-4.73.87-8.61.42-17.19-.33-25.75-.96-11.33-.84-22.66-.46-33.99-.66-7.84-.14-15.69-.01-23.45-1.39-.73-.13-1.45-.34-2.15-.58-1.73-.59-3.41-1.58-3.47-3.49-.07-2.16,2.04-2.69,3.66-3.13,7.04-1.91,14.27-1.9,21.51-1.94Z"/>
      <path class="cls-3" d="m241.25,135.13c-5.43-.94-11.1-3.27-16.09-7.11-1.71-1.31-2.36-3.13-1.35-5.29,1.09-2.34,3.14-2.51,5.06-1.85,5.26,1.81,10.47,3.78,15.59,5.93,2.05.86,3.92,2.3,3.16,5.16-.79,2.98-3.09,3.19-6.37,3.15Z"/>
      <path class="cls-1" d="m127.63,135.2c-3.17-.12-5.39-.26-6.09-3.12-.67-2.77.89-4.33,3.06-5.23,5.13-2.12,10.31-4.14,15.55-5.96,1.9-.66,4.03-.56,5.09,1.76.94,2.07.49,3.91-1.27,5.31-5.05,4.02-10.89,6.18-16.34,7.23Z"/>
      <path class="cls-9" d="m189.75,132.24c-3.24-2.38-7.36-.12-11.49-.06-5.71.07-9.72-2.35-10.74-6.33-.31-1.22-1.24-3.17.6-3.77,1.85-.6,2.19,1.18,2.67,2.65,1.16,3.52,7.71,5.64,10.76,3.64,1.83-1.2,1.35-3.04,1.42-4.74.05-1.22-.21-2.8,1.6-2.77,1.72.03,1.62,1.62,1.65,2.83.07,2.38-.28,4.88,3.19,5.28,4.19.47,8.13-1.18,8.96-4.32.43-1.63.93-3.12,2.66-2.54,1.58.53.77,2.39.53,3.56-.86,4.11-5.04,6.54-11.81,6.57Z"/>
      <path class="cls-10" d="m108.17,149.29c.12,1.25-.51,1.79-1.4,2.09-3.63,1.24-7.26,2.5-10.92,3.65-1.03.33-2.35.6-2.72-.99-.27-1.2.51-1.77,1.58-2.12,3.65-1.18,7.29-2.41,10.93-3.62,1.19-.39,2.22-.37,2.53.98Z"/>
      <path class="cls-11" d="m276,153.78c-.2,1.62-1.39,1.65-2.49,1.31-3.77-1.18-7.5-2.47-11.24-3.75-.89-.3-1.55-.91-1.39-1.92.17-1.07,1.11-1.46,1.96-1.2,4.13,1.27,8.22,2.65,12.31,4.03.66.22.77.9.85,1.53Z"/>
      <path class="cls-3" d="m100.11,143.23c-2.11,0-4.21,0-6.32,0-.99,0-1.8-.41-1.88-1.38-.1-1.22.8-1.7,1.93-1.7,4.09,0,8.18,0,12.27,0,.97,0,1.81.38,1.89,1.38.1,1.24-.82,1.69-1.93,1.7-1.98.02-3.97,0-5.95,0Z"/>
      <path class="cls-3" d="m268.78,143.25c-1.61,0-3.22.02-4.84,0-1.21-.01-2.81.22-2.9-1.47-.09-1.73,1.47-1.65,2.72-1.65,3.6-.01,7.19,0,10.79,0,1.14,0,2.5,0,2.54,1.47.04,1.76-1.49,1.64-2.73,1.65-1.86.02-3.72,0-5.58,0Z"/>
      <path class="cls-5" d="m79.52,88.68c-14.07.18-20.44-9.76-14.91-20.99,3.35-6.79,8.68-11.48,16.04-13.55,7.84-2.21,15.2,1.44,19.07,9.23,3.42,6.9,1.59,14.95-4.68,19.71-5.01,3.81-10.82,5.44-15.52,5.6Z"/>
      <path class="cls-5" d="m293.1,88.71c-5.74-.09-11.08-1.64-15.87-4.77-7.12-4.65-9.48-13.3-5.8-20.63,4.15-8.28,12.24-11.8,20.54-8.77,6.47,2.36,11.32,6.71,14.44,12.85,5.75,11.32-.64,21.49-13.31,21.32Z"/>
      <path class="cls-2" d="m118.52,36.18c.04-6.46,4.17-10.51,10.2-10.13,4.55.29,8.75,1.79,12.35,4.67,4.45,3.57,5.85,9.5,3.47,14.41-1.92,3.98-4.96,5.76-9.33,5.15-4.36-.61-8.43-2.1-11.9-4.9-3.04-2.44-5.04-5.48-4.8-9.21Z"/>
      <path class="cls-5" d="m252.59,36.08c.15,3.81-1.75,6.64-4.47,9-3.48,3.01-7.68,4.45-12.14,5.24-8.08,1.43-12.2-7.69-9.84-14.15,2.57-7.02,13.99-12.1,20.91-9.34,3.59,1.43,5.58,4.75,5.54,9.26Z"/>
      <path class="cls-3" d="m289.86,72.15c2.23-1.16,3.63-1.92,5.07-2.63,1.59-.78,2.94-.34,3.92,1.04,1.01,1.44.77,3.02-.51,4.03-3.5,2.75-7.48,4.4-12.04,4.25-2.21-.07-2.75-1.53-2.34-3.36.66-2.9,1.59-5.74,2.2-8.65.21-.99,1.39-2.2.23-3.07-.83-.62-1.83.33-2.72.69-1.38.55-2.74,1.21-4.16,1.6-1.39.39-2.86.26-3.5-1.3-.64-1.58-.77-3.43.88-4.37,3.34-1.89,6.79-3.7,10.73-3.99,4.15-.3,5.82,1.6,4.92,5.65-.69,3.11-1.63,6.17-2.69,10.1Z"/>
    </g>
  </g>
</svg>