<?xml version="1.0" encoding="UTF-8"?>
<svg id="katman_2" data-name="katman 2" xmlns="http://www.w3.org/2000/svg" viewBox="0 0 370.67 321.91">
  <defs>
    <style>
      .cls-1 {
        fill: #fed204;
      }

      .cls-1, .cls-2, .cls-3, .cls-4, .cls-5, .cls-6, .cls-7, .cls-8, .cls-9, .cls-10, .cls-11, .cls-12, .cls-13, .cls-14, .cls-15, .cls-16, .cls-17, .cls-18, .cls-19, .cls-20, .cls-21, .cls-22, .cls-23, .cls-24, .cls-25, .cls-26, .cls-27, .cls-28, .cls-29, .cls-30, .cls-31, .cls-32, .cls-33, .cls-34, .cls-35, .cls-36, .cls-37, .cls-38, .cls-39, .cls-40, .cls-41, .cls-42, .cls-43, .cls-44, .cls-45 {
        stroke-width: 0px;
      }

      .cls-2 {
        fill: #030401;
      }

      .cls-3 {
        fill: #fbd006;
      }

      .cls-4 {
        fill: #f8ce06;
      }

      .cls-5 {
        fill: #f9cf05;
      }

      .cls-6 {
        fill: #f9cf04;
      }

      .cls-7 {
        fill: #fcd104;
      }

      .cls-8 {
        fill: #fbd005;
      }

      .cls-9 {
        fill: #facf06;
      }

      .cls-10 {
        fill: #ffd406;
      }

      .cls-11 {
        fill: #fbd004;
      }

      .cls-12 {
        fill: #040501;
      }

      .cls-13 {
        fill: #fffdfa;
      }

      .cls-14 {
        fill: #f6cc06;
      }

      .cls-15 {
        fill: #f8cd05;
      }

      .cls-16 {
        fill: #fdd204;
      }

      .cls-17 {
        fill: #facf04;
      }

      .cls-18 {
        fill: #030301;
      }

      .cls-19 {
        fill: #fffdf9;
      }

      .cls-20 {
        fill: #fffefc;
      }

      .cls-21 {
        fill: #f8ce07;
      }

      .cls-22 {
        fill: #fed304;
      }

      .cls-23 {
        fill: #fffefa;
      }

      .cls-24 {
        fill: #f8cd08;
      }

      .cls-25 {
        fill: #ffd405;
      }

      .cls-26 {
        fill: #010202;
      }

      .cls-27 {
        fill: #030404;
      }

      .cls-28 {
        fill: #f9cf06;
      }

      .cls-29 {
        fill: #fff;
      }

      .cls-30 {
        fill: #f8cd06;
      }

      .cls-31 {
        fill: #fdd205;
      }

      .cls-32 {
        fill: #221e03;
      }

      .cls-33 {
        fill: #282304;
      }

      .cls-34 {
        fill: #f5a411;
      }

      .cls-35 {
        fill: #ffd305;
      }

      .cls-36 {
        fill: #1a1702;
      }

      .cls-37 {
        fill: #fed205;
      }

      .cls-38 {
        fill: #1a1803;
      }

      .cls-39 {
        fill: #fdd104;
      }

      .cls-40 {
        fill: #060808;
      }

      .cls-41 {
        fill: #fcd105;
      }

      .cls-42 {
        fill: #c9a70f;
      }

      .cls-43 {
        fill: #fed305;
      }

      .cls-44 {
        fill: #0f0e01;
      }

      .cls-45 {
        fill: #fdd106;
      }
    </style>
  </defs>
  <g id="Layer_1" data-name="Layer 1">
    <g>
      <path class="cls-26" d="m79.07,163.94c1.66-15,3.17-29.84,5.77-44.55.63-3.54-.66-7.38-.55-11.07.4-13.23,6.47-24.03,15.05-33.63,7.02-7.86,15.1-14.49,24.17-19.83,2.39-1.41,3.02-2.74,2.57-5.6-2.44-15.67-1.23-30.96,5.43-45.62,1.21-2.66,2.82-3.61,5.71-3.63,14.04-.14,24.89,6.73,34.84,15.59,6.45,5.75,11.95,12.36,16.79,19.51,1.24,1.84,2.49,2.64,4.79,2.62,13.97-.11,27.93-.1,41.9,0,2.13.01,3.32-.72,4.51-2.43,8.64-12.37,18.56-23.46,32.21-30.52,6.15-3.18,12.67-4.92,19.7-4.78,2.76.06,4.31.98,5.46,3.46,5.19,11.2,7,23,6.45,35.22-.18,3.97-.51,7.96-1.1,11.89-.27,1.79.08,2.64,1.67,3.47,23.48,12.28,35.66,33.08,42.96,57.45,1.5,4.99,1.27,9.94-3.15,13.69-1.34,1.14-.95,2.44-.74,3.75,3.13,19.95,4.82,40.04,5.82,60.2.21,4.23.51,8.46.66,12.7.51,14.48-.29,28.8-6.03,42.93,4.95-1.87,9.44-3.63,14.33-3.34,10.26.6,12.92,10.23,12.29,17.64-.63,7.33-5.42,11.79-11.71,14.74-7.42,3.48-15.38,4.76-23.47,5.36-7.47.55-14.94.39-22.42.03-5.58-.27-10.32,3.2-15.66,4.21-1.45.28-.4,1.36.08,1.95,2.1,2.63,5.05,3.95,8.11,5.05,6.55,2.34,9.55,6.85,8.35,12.57-1.46,6.96-7.16,11.25-14.06,10.59-11.21-1.08-25.05-12.37-27.54-23.37-.93-4.09-2.65-4.34-6.04-4.28-35.78.63-71.57.63-107.35.03-5.27-.09-6.41.73-7.79,5.79-1.38,5.05-1.04,10.09.33,15.11,1.85,6.82-.28,11.65-6.13,14.06-6.14,2.53-13.04.34-15.94-5.7-4.51-9.38-4.72-19.15-1.44-29.02.31-.93,1.08-1.72.83-2.87-.12-.07-.3-.25-.52-.31-2.15-.59-4.54-2.03-6.4-1.53-2.25.6-1.41,3.84-2.31,5.8-3.69,8.03-10.1,12.59-18.68,12.7-26.43.34-52.87.38-79.31.03-8.2-.11-14.01-5.23-17.79-12.41-2.54-4.83-3.6-10.09-3.62-15.47C-.02,252.9.06,233.7,0,214.49c-.01-3.45,1.33-4.98,4.89-4.91,6.86.14,13.72-.03,20.57.09,2.09.04,2.75-.53,2.77-2.68.07-9.94,1.9-19.49,6.7-28.34,2.54-4.68,5.82-8.69,10.26-11.65,1.56-1.04,2.38-2.12,2.58-4.11.56-5.65,5-9.97,10.69-10.81,5.2-.78,9.1,1.54,11.6,7.2.72,1.62,1.61,2.62,3.32,3.03,1.79.43,3.55,1.01,5.68,1.63Z"/>
      <path class="cls-25" d="m121.23,255.22c-.05-13.34-.1-26.67-.15-40.01-.02-4.83-.76-5.56-5.65-5.57-4.24,0-8.48-.14-12.71.05-2.45.11-3.48-.35-3.43-3.15.08-5.1-.64-10.18-1.82-15.17-.39-1.65-.26-3.07.47-4.66,4.88-10.63,1.22-19.09-9.82-22.55-1.89-.59-2.6-1.08-2.39-3.21,1.33-13.63,2.88-27.22,5.39-40.69.36-1.92.99-2.72,3.05-2.82,4.35-.21,8.7-.65,13.02-1.21,2.12-.27,2.86.18,2.71,2.45-.25,3.72-.18,7.45.74,11.14,1.8,7.17,5.95,10.96,12.51,11.23,8.81.36,13.59-2.69,16.06-10.28,1.44-4.42,1.98-9.01,2.05-13.61.04-2.43.86-3.22,3.23-3.3,30.77-.98,61.53-2.06,92.33-1.15,14.82.44,29.65.69,44.46,1.47,2.71.14,3.84.78,3.85,3.8.01,4.08.57,8.19,1.78,12.15,3.57,11.67,17.27,14.94,25.83,6.16.64-.17,1.01-.09.66.69-2.72,4.97-4.76,10.16-4.14,15.94,1.09,10.1,7.96,16.95,18.92,19.2,3.3.68,6.69,1.27,9.99.85,3.57-.46,4.18,1.22,4.29,4.1.27,7.58.66,15.15,1.01,22.73.94,7.21-1.22,13.79-4.28,20.11-7.48,15.45-18.97,27.23-33.59,36.06-1.38.84-2.85,1.54-4.32,2.21-7.5,3.46-7.94,3.38-12.52-3.49-12.34-18.49-29.23-30.93-50.18-38.05-1.3-.44-2.62-.67-3.93-1.01-3.88-.76-7.74-1.6-11.63-2.28-9.34-1.63-18.51-.17-27.67,1.54-10.18,1.82-19.27,6.38-28.07,11.5-12.62,7.34-22.34,17.69-30.26,29.85-3.11,4.77-4.2,5.08-9.5,2.75-2.23-.98-4.81-1.49-6.28-3.78Z"/>
      <path class="cls-29" d="m239.84,44.33c2.05-.09,2.9-1.64,3.88-3.1,7.99-11.86,17.21-22.5,29.78-29.76,4.65-2.68,9.64-4.35,15.07-4.9,2.69-.27,3.77.76,4.62,3.02,5.29,14.03,5.64,28.39,2.72,42.9-.59,2.94.28,4.33,2.66,5.65,5.63,3.11,11.32,6.18,16.03,10.69-.31,1.73-1.89,2.2-3.08,3.02-6.69,4.59-9,11.29-6.25,18.87,2.02,5.55,5.48,9.94,10.77,12.87,6.53,3.63,13.49,5.68,20.91,6.29,1.21.1,2.54-.11,3.39,1.11,1.16,2.65,2.22,5.32.78,8.19-.51,1.02-1.36,2.14-2.49,1.93-1.23-.23-1.59-1.82-1.29-2.74,1.05-3.18-.99-3.22-3.07-3.38-5.09-.4-10.18-.9-15.27-1.16-2.12-.11-3.26-.74-3.3-2.99-.04-2.3-1.02-4.01-3.6-3.69-2.72.33-2.73,2.42-2.46,4.55.69,5.44,1.43,10.87.09,16.34-1.11,4.53-3.04,6.5-6.77,6.7-5.55.3-8.36-1.34-9.82-5.98-1.73-5.52-1.78-11.28-2.15-16.98-.06-.99-.07-1.99-.1-2.99-.08-2.26-.53-4.58-3.28-4.54-3.01.04-3.54,2.44-3.09,4.85.58,3.08-1.37,2.45-3.04,2.36-24.4-1.41-48.82-2.08-73.25-1.89-21.06.16-42.11.89-63.17,1.46-2.15.06-3.64.17-3.15-2.75.36-2.14-.83-3.79-3.02-3.91-2.27-.12-3.27,1.58-3.35,3.68-.24,6.35-.52,12.7-1.73,18.95-1.04,5.38-3.35,7.54-7.98,7.81-5.92.35-7.97-1.32-9.27-7.21-1.13-5.1-.61-10.16.11-15.23.31-2.21.49-4.59-2.29-5.08-2.74-.49-3.68,1.51-3.74,3.92-.04,1.68-1.03,1.96-2.45,2.07-4.72.37-9.45.69-14.13,1.35-3.29.46-3.96-.95-3.45-3.73,2.52-1.68,5.51-1.21,8.27-1.76,6.45-1.28,12.49-3.39,17.62-7.63,5.99-4.96,8.77-11.33,8.11-19.1-.4-4.78-3.74-7.68-7.03-10.59-.98-.87-2.54-1.21-2.68-2.88,4.37-4.12,9.38-7.38,14.61-10.21,3.14-1.7,3.98-3.59,3.28-7.19-2.72-13.92-2.21-27.7,2.58-41.21,1.01-2.85,2.36-4.07,5.66-3.67,9.17,1.11,16.63,5.58,23.56,11.22,8.09,6.59,14.68,14.52,20.42,23.19,1.03,1.56,1.95,3.25,4.17,3.3,2.53,2.12,3.67,5.25,5.72,7.76,8.78,10.75,32.23,11.35,41.77-3.68.92-1.46,1.62-3.12,3.19-4.09Z"/>
      <path class="cls-34" d="m234.64,215.65c7.92.92,15.04,4.16,21.91,7.92,14.94,8.18,26.53,19.89,35.34,34.39,1.11,1.82,2.2,1.78,4,1.27,7.6-2.17,14-6.53,19.92-11.44,10.74-8.91,19.46-19.5,24.45-32.77,1.84-4.89,3.14-9.93,3.21-15.2,3.2,32.28-6.8,68.76-48.35,78.15-5.94,1.34-12.05,1.68-18.14,2.01-2.59.14-3.29-.59-3.37-3.24-.25-8.7-.15-17.52-2.47-25.96-4.72-17.13-16.63-27.49-32.76-33.62-1.25-.48-2.48-1-3.73-1.5Z"/>
      <path class="cls-25" d="m36.56,293.83c7.84-8.96,8.3-19.18,8.19-29.63-.15-14.95.03-29.9-.1-44.86-.02-2.67.48-3.67,3.43-3.6,15.94.33,31.88-.23,47.82.32,5.21.18,10.45-.05,15.67-.29,2.52-.12,3.45.54,3.43,3.27-.11,19.31,0,38.63-.08,57.94-.05,11.11-5.72,16.78-16.84,16.83-20.18.08-40.37.02-61.52.02Z"/>
      <path class="cls-34" d="m121.23,255.22c3.13,1.14,5.98,2.89,9.2,3.88,2.34.72,3.55.28,4.82-1.8,4.71-7.64,10.28-14.61,16.88-20.74,11.44-10.61,24.82-17.62,39.88-21.52,1.05-.27,2.22-.11,3.33-.14-8.61,2.78-17.01,5.97-24.1,11.88-10.59,8.82-16.32,20.03-17.23,33.81-.37,5.59-.9,11.16-.74,16.77.05,1.89-.46,2.68-2.5,2.59-9.33-.39-18.57-1.08-27.46-4.35-1.76-.65-2.28-1.47-2.25-3.21.12-5.72.12-11.45.17-17.17Z"/>
      <path class="cls-29" d="m55.21,209.62c-6.11,0-12.21.02-18.32-.02-1.07,0-2.67.65-2.57-1.54.51-11.98,2.28-23.53,10.84-32.85.59-.64,1.29-1.18,1.9-1.79,1.53-1.52,2.39-1.32,3.45.72,3.75,7.2,8.81,13.27,16.25,16.95,1.76.87,3.7,1.86,5.57,1.9,4.11.09,5.31,1.8,4.61,5.71-.46,2.55-.53,5.23-.37,7.83.18,2.76-.95,3.22-3.42,3.15-5.98-.18-11.96-.06-17.95-.06Z"/>
      <path class="cls-25" d="m114.87,68.91c.08.09.15.21.25.27,13.42,8.15,14.34,23.26,1.88,33.1-7.71,6.09-16.78,8.31-26.43,8.59-.64-11.48,4.33-20.89,11.12-29.55,3.75-4.78,7.92-9.19,13.17-12.41Z"/>
      <path class="cls-25" d="m340.33,110.97c-8.57-.14-16.71-2.06-24.22-6.23-5.62-3.12-9.74-7.58-11.81-13.79-2.71-8.12-.52-14.9,6.51-19.81,1.21-.85,2.52-1.55,3.79-2.33,6.34,4.54,11.26,10.41,15.13,17.07,4.59,7.88,8.52,16.12,10.6,25.09Z"/>
      <path class="cls-25" d="m6.68,277.62c-.06-19.56-.09-39.13-.24-58.69-.02-2.42.6-3.22,3.11-3.18,8.59.15,17.18.16,25.77,0,2.59-.05,3.08.9,3.07,3.24-.08,17.45-.02,34.89-.07,52.34-.02,5.8-.91,11.39-4.78,16.06-.31.22-.65.28-1.01.17-1.64-.83-3.69-1.37-3.33-3.86.35-2.41.99-4.7,4.33-5.58-1.87-.67-3.02-1.57-3.07-3.33-.04-1.64-.3-3.56,1.22-4.47,1.77-1.05.34-1.19-.15-1.82-2.02-2.61-1.4-5.71,1.44-7.47.14-.25.04-.39-.26-.5-3.06-1.21-3.13-4.56-1.82-5.84,2.49-2.45-.38-3.53-.42-5.21-.05-2.39-.47-4.89,2.73-5.75-3.81-2.34-3.85-5.89-.17-8.24-3.6-2.4-3.62-5.99-.07-8.78-2.31-.69-2.43-2.53-2.35-4.08.26,2.27-.16,4.31-3.56,4.39-3.8.1-4.93-.69-5.43-4.34-.39,3.63-1.45,4.38-5.57,4.35-2.89-.02-4.62-.98-4.13-3.91-1.09,2.18-.76,4.57.07,7.13.58,1.77.05,3.73-1.69,4.99,1.23,1.44,2.07,3.01,1.76,5.01-.12.75-.12,1.61-.68,2.09-1.12.95-1.21,1.73.02,2.6.19.14.29.41.35.65.55,2.37-.16,4.43-.78,6.74-.44,1.64,1.92,4.31.68,6.52-.89,1.59-.75,2.48.02,4.02,1.13,2.27-.74,4.54-.86,6.63-.1,1.78,1.85,4.02,1,6.24-.89,2.33-2.77,2.99-5.11,1.87Z"/>
      <path class="cls-12" d="m6.68,277.62c3.47-.14,4.93-1.46,4.43-5.36-.35-2.73-2.91-1.27-3.85-3.17,4.5.13,3.49-2.93,3.73-5.49.26-2.84-3.54-.67-3.31-2.83.17-1.67,3.2.07,3.35-2.59.2-3.61.07-4.25-4.25-5.88,4.2-.5,4.29-2.93,4.26-5.84-.04-2.79-2.78-.96-3.53-2.76,1.87-.88,4.21-1.49,3.52-4.55-.33-1.49.03-2.97-2.23-2.99-.81,0-1.95-1.39-.7-1.48,3.97-.3,2.57-3,2.87-5.06.41-2.87-2.58-1.49-4.02-3.24,6.34-.09,2.91-5.09,4.55-7.78,2,1.14,1.24,2.99,1.11,4.34-.35,3.69,2.17,2.82,4.12,2.84,2.01.03,4.47.71,4.09-2.9-.14-1.34-.6-2.93.69-4.26,1.4.69.9,1.95.94,2.93.14,3.8,2.95,5.62,6.47,4.21,1.16-.46.83-1.35.93-2.15.2-1.62-.47-3.38.87-5.43,1.45,2.2.75,4.2.95,6.03.34,3.03,3.67.48,4.55,2.32-.01.82-.54.93-1.02,1-3.12.5-4.42,2.69-3.53,5.66.51,1.7,1.78.93,2.75,1.07.75.11,1.72.03,1.76.94.03.84-.89,1.17-1.65,1.04-2.83-.46-2.87,1.23-2.92,3.33-.05,2.26.36,3.67,3.03,3.24.64-.1,1.37.14,1.53.79.17.74-.51,1.17-1.13,1.06-3.86-.69-3.21,1.91-3.43,4.27-.31,3.29,1.94,2.4,3.62,2.58.54.06.91.34,1.04,1.12-.33.17-.73.57-1.11.56-2.28-.11-3.74.27-3.57,3.2.14,2.28.19,3.98,3.13,3.5.67-.11,1.34.23,1.48.87.15.71-.51,1.19-1.13,1.08-3.8-.66-3.32,1.83-3.45,4.26-.18,3.25,2.14,2.25,3.76,2.57.32.06.6.34.84.48.11.76-.32.98-.83,1.05-3.39.47-4.5,2.15-3.84,5.54.4,2.06,1.94.98,2.97,1.18.77.15,1.72.2,1.73,1.03,0,.79-.91,1.17-1.69,1.02-4.41-.84-3.64,2.99-4.62,5.17-.5,1.11.31,1.52,1.37,1.55,1.04.03,1.65.48,1.4,1.63-2.68,1.05-5.05,3.76-8.34,1.58-2.03,1.94-4.5-.05-6.88.78-2.02.71-4.22-1.48-6.36-2.33l.08.09c-.26-.29-.46-.68-.3-1,2.36-4.72,1.58-6.14-3.6-6.53-.76-.62-.6-1.48-.6-2.3Z"/>
      <path class="cls-25" d="m239.84,44.33c-4.88,11.08-13.48,16.44-25.48,16.54-11.39.09-19.83-4.67-24.8-15.11-.21-.44-.27-.95-.4-1.42,16.89,0,33.78,0,50.68,0Z"/>
      <path class="cls-25" d="m321.07,273.15c7.29-5.18,12.06-11.48,17.38-17.32,4.91-5.39,12.18-7.98,19.84-8.07,2.51-.03,4.13,1.54,5.11,3.74,2.86,6.41.79,12.33-5.58,15.81-7.97,4.36-16.79,5.12-25.59,5.79-3.34.25-6.72.04-11.16.04Z"/>
      <path class="cls-10" d="m59.45,158.22c2.78.15,4,1.21,4.72,2.99,2.52,6.19,6.27,11.27,12.77,13.74.99.38,1.31.82,1.21,1.89-.25,2.72-.44,5.45-.49,8.18-.03,1.89-.95,2.33-2.6,2.11-1.99-.26-3.92-.78-5.65-1.76-7.58-4.29-12.62-10.72-15.23-18.97-1.34-4.24,1.85-8.3,5.25-8.19Z"/>
      <path class="cls-34" d="m287.09,285.04c1.88-.68,3.07.38,4.28,2.6,2.58,4.73,7.17,7.12,12.1,8.73,2.84.93,4.65,2.33,4.03,5.61-.61,3.24-2.61,5.11-5.84,5.28-8.34.45-21.93-10.69-23.63-19.05-.37-1.83-.11-2.4,1.79-2.44,2.23-.05,4.45-.43,7.26-.73Z"/>
      <path class="cls-34" d="m146.37,286.1c-3.22,7.68-3.31,15.44-.79,23.26.7,2.17.18,3.93-1.81,5.13-2.29,1.38-4.65,1.71-6.98.12-1.15-.79-2-1.89-2.47-3.2-2.9-8.1-3.22-16.21-.04-24.33.72-1.84,1.62-2.74,3.89-2.19,2.62.64,5.43.31,8.2,1.21Z"/>
      <path class="cls-35" d="m82.93,202.81c0-.37,0-.74,0-1.11.16-6.34.98-7.16,7.39-7.91,1.2-.14,1.47.26,1.65,1.28.75,4.28.94,8.6,1.1,12.92.04,1.04-.24,1.66-1.4,1.65-2.47-.03-4.95-.06-7.42-.05-1.42.01-1.54-.86-1.52-1.96.04-1.61,0-3.21,0-4.82.07,0,.13,0,.2,0Z"/>
      <path class="cls-43" d="m313.76,134.72c2.59-4.9,3.02-10.21,2.69-15.59-.13-2.16.37-2.76,2.6-2.49,4.32.52,8.67.71,13.76,1.09-6.99,5.12-12.65,10.87-17.86,17.06-.41.3-.8.28-1.18-.06Z"/>
      <path class="cls-16" d="m11.1,287.37c1.79.42,4.04-.74,5.27,1.66.32.62,1.04.63,1.39-.17.99-2.28,2.03-1.94,3.12-.09.57.96,1.19.9,1.46-.1.31-1.13,1.42-1.61,1.91-1.14,2.96,2.85,5.62-1.03,8.42-.2.29.02.57.04.86.06-6.27,8.4-15.83,8.4-22.44-.02Z"/>
      <path class="cls-5" d="m7.27,279.93c1.87-1.79,3.66-1.52,5.15.4.57.74.58,1.89,1.04,2.74.91,1.7.96,2.74-1.42,2.75-.94,0-1.1.81-.86,1.64-2.08-2.11-2.76-4.94-3.9-7.53Z"/>
      <path class="cls-42" d="m313.76,134.72c.39.02.79.04,1.18.06-.51.74-1.02,1.48-1.53,2.22-.22-.23-.44-.46-.66-.69.34-.53.67-1.06,1.01-1.59Z"/>
      <path class="cls-18" d="m301.28,213.36c-6.07,0-11.89-1.19-17.33-3.86-6.73-3.3-9.21-10.11-6.3-16.63,2.58-5.79,7.76-7.99,13.83-5.87,4.62,1.62,9.19,3.17,14.01.48,1.53-.85,2.89.16,3.71,1.58.94,1.64.13,2.99-1.17,3.87-3.11,2.12-6.66,2.82-10.34,2.19-2.56-.44-5.12-1.09-7.53-2.03-3.04-1.19-5.31-.87-6.84,2.22-1.43,2.89-.77,6.17,1.93,7.94,4.29,2.81,9.24,3.66,14.21,3.99,6.67.45,12.91-.8,17.79-5.94,1.39-1.46,2.99-1.94,4.58-.44,1.73,1.63,1.21,3.27-.26,4.88-5.48,6.01-12.58,7.62-20.31,7.62Z"/>
      <path class="cls-12" d="m173.91,150.08c.06,3.62-2.95,6.63-6.63,6.63-3.66,0-6.39-2.62-6.52-6.25-.13-3.81,2.58-6.72,6.32-6.8,3.73-.08,6.76,2.77,6.82,6.42Z"/>
      <path class="cls-2" d="m267.17,149.99c.08,3.8-2.67,6.68-6.43,6.72-3.66.04-6.41-2.55-6.57-6.19-.17-3.86,2.44-6.74,6.22-6.86,3.85-.12,6.69,2.53,6.78,6.32Z"/>
      <path class="cls-44" d="m218.29,154.1c-3.95-3.24-8.87,1.3-13.65-.54-3.15-1.21-5.52-2.82-5.91-6.4-.09-.79-.48-1.86.92-1.98.97-.08,1.72.22,1.86,1.34.37,3.07,2.63,4.01,5.19,4.53,3.95.79,5.44-.38,5.71-4.41.07-1.11-.15-2.51,1.45-2.49,1.5.02,1.6,1.34,1.51,2.5-.18,2.33.12,4.44,3.05,4.49,3.02.05,6.16-.1,7.45-3.58.44-1.19.47-2.88,2.1-2.31,1.73.6.8,2.24.39,3.42-1.23,3.49-4.56,5.38-10.05,5.43Z"/>
      <path class="cls-23" d="m310.21,195.94c-1.77,3.7-4.93,3.86-7.71,4.38-4.41.82-8.63-.29-12.76-1.82-1.06-.39-2.43-.8-1.99-2.17.47-1.5,1.8-.85,2.85-.47,4.27,1.56,8.64,2.41,13.18,1.67,2.01-.33,3.98-.97,6.43-1.59Z"/>
      <path class="cls-32" d="m287.61,163.78c-1.73,0-3.45.04-5.18-.02-.9-.03-1.76-.39-1.81-1.46-.06-1.14.81-1.43,1.73-1.44,3.57-.03,7.15-.03,10.72,0,.75,0,1.52.19,1.61,1.15.1,1.09-.61,1.65-1.53,1.71-1.84.1-3.7.03-5.54.03,0,0,0,.02,0,.02Z"/>
      <path class="cls-36" d="m282.54,167.79c3.35,1.18,6.87,2.39,10.36,3.68.73.27,1.23.95.74,1.79-.4.69-1.03,1.04-1.89.75-3.41-1.15-6.84-2.27-10.24-3.45-.78-.27-1.19-.95-.93-1.78.26-.83.95-1.09,1.95-.99Z"/>
      <path class="cls-33" d="m140.09,160.71c1.73,0,3.46-.04,5.18.02.86.03,1.84.18,1.93,1.3.08,1.08-.78,1.6-1.65,1.62-3.58.08-7.15.08-10.73.02-.86-.02-1.71-.41-1.7-1.56.01-1.21.93-1.35,1.79-1.38,1.73-.06,3.45-.02,5.18-.02,0,0,0,0,0-.01Z"/>
      <path class="cls-38" d="m136.08,173.97c-1.21-.05-1.95-.21-2.11-1.12-.12-.69.24-1.25.87-1.47,3.51-1.24,7.02-2.46,10.55-3.62.77-.25,1.48.16,1.8.96.27.68-.03,1.37-.61,1.58-3.6,1.32-7.24,2.55-10.49,3.68Z"/>
      <path class="cls-10" d="m168.49,46.73c-8.6,1.43-16.52,2.82-23.99,5.91-1.78.74-1.99-.49-2.09-1.55-.77-7.91-1.49-15.81.84-23.65.98-3.3,2.56-3.44,5.08-1.81,8.21,5.31,13.96,12.94,20.16,21.1Z"/>
      <path class="cls-10" d="m283.48,40.08c.01,3.92-.17,7.14-.58,10.37-.29,2.24-1.17,2.35-2.91,1.74-6.82-2.41-13.82-4.06-20.99-5.01-1.66-.22-1.93-.85-.95-2.13,5.52-7.24,11.06-14.44,18.89-19.46,2.7-1.73,4.14-1.16,5.02,1.9,1.26,4.36,1.75,8.78,1.52,12.61Z"/>
      <path class="cls-27" d="m168.12,78.82c-2.94-1.73-5.93-1.57-8.87-1.68-1.77-.06-3.97-.17-4.14-2.22-.17-2.01,1.97-2.66,3.7-2.96,4.98-.87,9.91-.81,14.55,1.54,2.17,1.1,4.13,2.63,4.17,5.29.04,2.47-2.07,3.52-3.94,4.51-4.08,2.15-8.39,3.68-12.95,4.39-.98.15-2.42.48-2.86-.96-.35-1.12.7-1.74,1.4-2.42,2.5-2.42,5.93-3.37,8.93-5.49Z"/>
      <path class="cls-27" d="m259.98,79.03c3.07,1.84,6.29,2.94,8.75,5.23.79.74,1.97,1.43,1.33,2.75-.54,1.1-1.81.84-2.69.68-5.39-.98-10.61-2.54-15.12-5.77-2.51-1.79-2.45-4.31-.15-6.65,3.6-3.67,14.49-5.17,19.03-2.63,1,.56,2.12,1.21,1.79,2.51-.34,1.36-1.7,1.77-2.94,1.9-2.58.27-5.22-.11-7.76.71-.69.22-1.48.16-2.24,1.26Z"/>
      <path class="cls-40" d="m219.92,90.59c-4.02-3.15-9.15.14-14.28,0-6.18-.16-10.35-3.56-10.81-8.65-.12-1.28-.56-3.09,1.3-3.36,2.09-.3,1.3,1.61,1.47,2.66.85,5.12,8.43,8.49,12.96,5.79,2.15-1.28,1.77-3.32,1.86-5.28.05-1.15-.52-2.9,1.25-3.01,2.08-.12,1.69,1.76,1.65,3.04-.1,2.94.04,5.54,3.92,5.88,5.45.47,9.54-1.39,10.44-4.99.21-.83.22-1.71.3-2.57.09-.94.36-1.76,1.51-1.7,1.22.06,1.17,1.04,1.28,1.91.67,5.35-3.46,9.66-9.88,10.27-.62.06-1.24,0-2.97,0Z"/>
      <path class="cls-2" d="m65.02,219.86c.31.41.6.64.7.94.53,1.59-.94,4.07.9,4.75,1.98.73,4.43.32,6.67.23,2.32-.09,1.14-2.01,1.45-3.14.24-.86-.58-2.38.79-2.48,1.49-.11,1.07,1.48.97,2.28-.57,4.74,2.9,3.08,5.16,3.37,2.48.32,4.19-.12,3.68-3.26-.14-.89-.39-2.45.89-2.47,1.67-.03,1.22,1.68,1.08,2.61-.5,3.37,1.61,3.36,3.84,3.09,2.1-.25,5.49,1.45,5-3.12-.09-.88-.43-2.49.76-2.51,1.73-.04,1.05,1.74.95,2.62-.3,2.58.79,3.12,3.16,3.08,5.24-.09,5.24.03,5.85-4.96.04-.31.32-.59.64-1.16,1.65,1.51.67,3.35,1.03,4.86.57,2.4,3.37.19,4.22,2.01.02.63-.36.88-.91.93-1.62.15-3.75-.47-3.36,2.48.26,1.96-1.07,4.89,2.93,4.32.62-.09,1.36.16,1.31.95-.05.71-.79,1.05-1.39.96-2.83-.42-2.83,1.27-2.9,3.35-.07,2.27.38,3.61,3,3.29.57-.07,1.3.17,1.27,1-.02.61-.56.85-1.06.78-4.06-.6-2.96,2.31-3.18,4.48-.35,3.41,2.33,1.93,3.75,2.5.2.08.33.33.49.5.1.87-.58,1.11-1.15,1.08-2.02-.09-3.44.25-3.09,2.82.24,1.81-.77,4.31,2.69,3.87.71-.09,1.6.13,1.52,1.15-.06.79-.85.89-1.44.81-3.79-.51-2.5,2.28-2.76,4.12-.32,2.31.9,2.78,2.85,2.61.57-.05,1.27-.02,1.49,1.13-1.2,1.28-5.22-.7-4.44,3.48.38,2.04-.5,4.42,3,3.78.62-.11,1.38.23,1.34.95-.05.94-.95.91-1.69,1.05-1.27.25-3.02-.84-3.55,1.56-.58,2.64-2.91,5.71,2.55,5.67-.77,1.78-2.05,1.05-3.04,1.21-.83.13-1.74-.13-2.3.84-.54.94-.81,2.7-1.87,2.54-1.84-.29-.28-1.77-.42-2.71-.09-.59-.66-.72-1.15-.62-2.85.54-6.68-1.83-8.22,2.74-.12.35-.52.92-1.16.58-.5-.26-.77-.78-.52-1.23,1.24-2.21-.17-2.15-1.7-2.11-3.22.08-6.89-.97-7.86,3.78-2.03-1.35-.22-2.58-.77-3.77-1.94,0-3.93.02-5.92,0-1.18-.02-2.15.09-2.75,1.39-.36.78-.59,2.39-1.81,1.91-1.5-.6.18-1.93-.27-3.29-1.68,0-3.53.18-5.32-.05-2.18-.28-3.16.78-3.87,2.57-.2.5-.58,1.19-1.37.77-.47-.25-.71-.76-.45-1.26,1.28-2.42-.53-2.12-1.84-2.01-2.61.21-5.92-1.29-7.13,2.71-.12.4-.57.92-1.15.59-.26-.15-.59-.68-.51-.87,1.43-3.07-.86-2.35-2.42-2.48-.77-.06-2.11.41-2.09-.81.03-1.47,1.55-1.04,2.35-.92,3.25.5,4.64-.94,5.44-4,.62-2.35.1-2.88-2.12-2.76-1.01.06-2.8.55-2.83-.89-.03-1.9,1.88-1,2.94-1.07,2.7-.18,4.55-3.46,3.2-5.9-.81-1.47-2.23-.58-3.36-.8-.93-.18-2,.32-2.92-.76,1.12-1.68,2.87-.94,4.25-.92,3.08.05,2.05-2.15,2.17-3.67.13-1.59.41-3.46-2.25-3.06-.12.02-.26.04-.37,0-1.23-.48-3.61,1.08-3.59-1.14.01-1.6,2.33-.94,3.54-.82,2.6.25,2.82-1.09,2.73-3.12-.09-1.9.31-3.96-2.71-3.54-.37.05-.76.07-1.12,0-.86-.18-2.39.49-2.38-.91,0-1.48,1.54-.81,2.39-.86,3.53-.21,4.91-2.21,3.75-5.68-.72-2.14-2.55-.7-3.82-1.1-.85-.27-2.4.48-2.4-.94,0-1.3,1.51-1.04,2.42-.97,2.59.2,4.16-.16,3.95-3.49-.16-2.43-.75-3.33-3.2-3.1-1.12.11-3.12.63-3.19-.91-.08-1.82,1.96-1.06,2.97-.97,2.52.22,3.47-.47,3.41-3.22-.05-2.63-.48-4.11-3.46-3.56-.48.09-1,.04-1.49,0-.58-.06-1.34.06-1.42-.8-.09-.92.71-.84,1.27-.94.36-.07.76-.09,1.12-.02,3.07.52,4.39-.67,3.93-3.83-.11-.78-.15-1.97,1.12-1.91,1.03.05.89,1.12.78,1.77-.9,5.25,2.93,3.62,5.56,3.99,3.65.51,3.36-1.81,3.28-4.13-.02-.61-.03-1.26.93-1.87Z"/>
      <path class="cls-11" d="m16.71,234.28c-2.22.11-4.23.62-4.19-3.11.04-3.5,1.47-3.65,4.19-3.64,2.7.01,4.19.11,4.22,3.64.03,3.73-1.99,3.22-4.22,3.11Z"/>
      <path class="cls-16" d="m16.52,251.43c-2.88.68-3.84-.29-3.98-3.51-.18-4.09,2.29-3.03,4.47-3.22,2.6-.22,3.85.19,3.92,3.43.08,3.76-1.86,3.57-4.4,3.3Z"/>
      <path class="cls-17" d="m17.22,261.95c2.59-.56,3.58.28,3.7,3.41.15,4.05-2.3,3.07-4.51,3.29-2.73.26-3.75-.41-3.87-3.53-.17-4.12,2.3-3.15,4.69-3.17Z"/>
      <path class="cls-6" d="m16.95,276.9c-3.92,1.09-4.13-1.56-4.27-4.34-.18-3.69,2.61-1.98,4.18-2.22,2.37-.37,4.13-.23,4.06,3.25-.06,3.18-1.19,3.89-3.97,3.31Z"/>
      <path class="cls-30" d="m16.5,259.82c-2.82.6-3.88-.18-3.97-3.35-.11-3.76,2.03-3.16,4.25-3.21,2.37-.06,4.12-.23,4.16,3.33.04,3.94-2.07,3.48-4.44,3.23Z"/>
      <path class="cls-7" d="m26.39,234.25c-2.48.37-4.13.3-4.07-3.18.05-3.16,1.22-3.52,3.88-3.55,2.71-.02,3.82.46,3.79,3.56-.03,2.94-1,3.72-3.59,3.17Z"/>
      <path class="cls-1" d="m25.62,251.47c-2.75.68-3.07-.79-3.27-3.41-.31-3.95,2.1-3.09,4.37-3.39,3.3-.44,2.94,1.46,3.23,3.69.49,3.85-1.94,3.15-4.32,3.11Z"/>
      <path class="cls-11" d="m26.34,262.01c2.96-.72,3.5.52,3.64,3.27.19,3.51-1.62,3.26-4.03,3.4-2.78.15-3.51-.68-3.61-3.5-.13-3.51,1.6-3.62,4-3.16Z"/>
      <path class="cls-17" d="m26.08,276.92c-2.59.5-3.7-.14-3.75-3.17-.06-3.28,1.33-3.53,3.94-3.53,2.47,0,3.78.19,3.71,3.3-.07,3.08-1.11,4.01-3.9,3.39Z"/>
      <path class="cls-4" d="m26.37,259.84c-2.55.41-4.13.17-4.05-3.25.07-2.99,1.17-3.42,3.72-3.38,2.5.04,4.07.05,3.95,3.44-.1,2.93-1.02,3.73-3.63,3.19Z"/>
      <path class="cls-16" d="m16.45,242.79c-2.19.26-3.85.32-3.92-3.2-.08-3.95,2.17-3.18,4.42-3.32,2.54-.16,3.95.11,3.97,3.43.02,3.71-2.08,3.15-4.47,3.1Z"/>
      <path class="cls-1" d="m26.54,236.3c2-.31,3.52-.1,3.44,3.13-.07,2.8-.75,3.67-3.55,3.46-2.37-.18-4.43.16-4.03-3.4.35-3.15.08-3.18,4.14-3.19Z"/>
      <path class="cls-15" d="m26.19,279.18c.6.46,3.21-1.37,2.71,1.29-.39,2.07-.1,5.18-3.85,5.29-2.65.08-2.54-1.35-2.64-3.24-.14-2.55.28-4.2,3.78-3.34Z"/>
      <path class="cls-14" d="m16.95,279.17c3.33-.8,4.24.52,3.85,3.23-.21,1.44.64,3.36-2.08,3.33-3.81-.04-3.61-3.42-4.18-5.53-.57-2.14,1.9-.66,2.41-1.03Z"/>
      <path class="cls-20" d="m76.42,178.39c-2.31,1.13-3.99.27-5.58-.55-5.48-2.83-8.77-7.58-11.24-13.04-.42-.92-1.04-1.94.19-2.59,1.21-.64,1.84.46,2.27,1.29,2.14,4.14,4.74,7.91,8.47,10.78,1.82,1.4,3.76,2.63,5.9,4.11Z"/>
      <path class="cls-13" d="m287.1,285.95c3.58,6.89,8.79,10.38,15.24,12.3,1.08.32,2.74.76,1.99,2.47-.65,1.48-1.96.5-2.95.23-5.04-1.41-9.44-3.9-12.68-8.08-1.31-1.69-2.83-3.48-1.6-6.91Z"/>
      <path class="cls-19" d="m139.89,287.81c-3.16,5.75-3.44,11.66-1.56,17.75.29.93.42,1.95.43,2.92,0,.39-.43.94-.81,1.15-.66.37-1.17-.15-1.56-.63-3.21-3.9-2.29-17.41,1.43-20.98.45-.43.95-.81,2.08-.21Z"/>
      <path class="cls-37" d="m58.4,251.59c-2.32.58-3.11-.58-3.26-3.7-.22-4.49,2.73-2.92,4.82-3.16,2.53-.29,4.19-.21,4.28,3.42.11,4.71-2.9,3.06-5.84,3.44Z"/>
      <path class="cls-25" d="m70.06,244.82c2.74-.24,5.07-.74,4.82,3.34-.17,2.76-.87,4.07-3.49,3.25-1.88-.59-5.14,2.39-5.64-2.22-.4-3.75.74-5.35,4.31-4.37Z"/>
      <path class="cls-45" d="m80.58,251.47c-2.41.24-4.09.38-4.2-3.2-.14-4.51,2.56-3.35,4.98-3.59,2.84-.28,4.03.25,4.11,3.64.11,4.55-2.84,2.85-4.88,3.14Z"/>
      <path class="cls-45" d="m91.35,251.46c-2.19.29-4.17.55-4.17-3.48,0-4.03,2.26-3.21,4.47-3.26,2.45-.05,4.71-.65,4.65,3.52-.05,4.05-2.28,3.25-4.96,3.21Z"/>
      <path class="cls-22" d="m102.45,251.48c-2.34,0-4.67.84-4.7-3.36-.03-4.25,2.35-3.34,4.67-3.4,2.49-.06,5.01-.53,4.46,3.58-.42,3.14-.1,3.19-4.44,3.18Z"/>
      <path class="cls-39" d="m69.68,262c3.09-.15,5.19-.82,5.23,3.15.06,4.54-2.66,3.28-5.01,3.47-2.59.21-4.18.12-4.27-3.48-.12-4.53,2.77-2.9,4.05-3.13Z"/>
      <path class="cls-7" d="m70.31,270.35c1.55.58,4.48-1.69,4.55,2.6.07,4.16-2.05,4.4-5.07,4.02-1.78-.22-4.18,1.14-4.17-2.7.01-3.67,1.25-4.71,4.69-3.93Z"/>
      <path class="cls-41" d="m59.71,234.27c-2.6.27-4.62.59-4.62-3.44,0-4.05,2.29-3.16,4.5-3.23,2.5-.08,4.66-.54,4.66,3.52,0,4.13-2.41,3.08-4.54,3.15Z"/>
      <path class="cls-16" d="m70.31,234.31c-2.1-.15-4.7,1.08-4.68-3.29.02-4.19,2.36-3.38,4.72-3.41,2.45-.03,4.64-.63,4.58,3.53-.06,4.11-2.36,3.09-4.62,3.17Z"/>
      <path class="cls-39" d="m102.17,234.31c-2.38.13-4.34.61-4.41-3.25-.08-4.53,2.63-3.27,4.97-3.46,2.62-.22,4.15-.05,4.24,3.5.12,4.5-2.75,2.93-4.8,3.22Z"/>
      <path class="cls-7" d="m101.74,268.6c-3.34,1.01-4.17-.89-3.87-4.35.14-1.66.38-2.59,2.27-2.36.98.12,2,.09,2.99,0,2.34-.19,3.85-.07,3.83,3.18-.01,3.19-1.19,3.91-3.91,3.53-.24-.03-.5,0-1.31,0Z"/>
      <path class="cls-21" d="m59.85,259.89c-2.44-.05-4.81.91-4.76-3.2.04-3.78,1.91-3.53,4.37-3.42,2.36.1,4.85-.81,4.8,3.47-.06,4.13-2.5,3.03-4.4,3.16Z"/>
      <path class="cls-8" d="m59.32,268.57c-2.25.19-4.17.52-4.23-3.29-.07-4.23,2.38-3.34,4.68-3.35,2.24-.01,4.49-.73,4.47,3.26-.02,4.15-2.36,3.45-4.92,3.38Z"/>
      <path class="cls-8" d="m80.19,276.85c-.86-.82-3.81,2.05-3.89-1.89-.08-3.45.74-5.46,4.75-4.69,1.94.37,4.33-.97,4.41,2.98.08,4.17-2.05,4.02-5.26,3.6Z"/>
      <path class="cls-9" d="m81.62,261.91c1.78-.17,3.89-.6,3.87,3.44-.02,3.94-2.21,3.21-4.46,3.27-2.49.06-4.65.51-4.66-3.51,0-4.07,2.34-3.14,5.25-3.19Z"/>
      <path class="cls-9" d="m91.27,268.58c-2.22.25-4.02.37-4.08-3.34-.07-4.24,2.42-3.27,4.7-3.32,2.32-.05,4.41-.55,4.4,3.31,0,4.15-2.4,3.38-5.03,3.36Z"/>
      <path class="cls-3" d="m80.91,227.67c2.6-.23,4.5-.53,4.58,3.26.09,4.23-2.34,3.36-4.66,3.38-2.27.02-4.47.66-4.44-3.28.03-4.07,2.24-3.56,4.53-3.36Z"/>
      <path class="cls-3" d="m92.05,234.29c-2.6,0-4.82.88-4.87-3.17-.05-4.11,2.14-3.47,4.58-3.55,2.63-.08,4.57-.26,4.54,3.65-.04,4.14-2.55,2.92-4.25,3.07Z"/>
      <path class="cls-9" d="m71.38,259.8c-3.5.18-5.78.8-5.74-3.34.05-4.49,2.88-2.91,5-3.17,2.61-.32,4.21-.12,4.26,3.49.06,4.22-2.54,2.9-3.53,3.02Z"/>
      <path class="cls-24" d="m80,259.84c-1.11-.09-3.59,1.04-3.63-3.08-.04-4.15,2.3-3.46,4.74-3.5,2.42-.04,4.37-.41,4.39,3.41.02,4.01-2.21,3.27-5.49,3.17Z"/>
      <path class="cls-24" d="m91.38,259.91c-3.89,0-5.08-1.64-4.03-5.39.25-.88.69-1.23,1.53-1.23.87,0,1.73-.03,2.6,0,2.34.05,4.83-.85,4.82,3.39-.01,4.4-2.74,3.03-4.92,3.23Z"/>
      <path class="cls-28" d="m102.43,259.89c-2.38.04-4.68.78-4.68-3.37,0-4.04,2.29-3.21,4.49-3.23,2.38-.02,4.77-.77,4.74,3.43-.03,4.1-2.41,3.07-4.55,3.16Z"/>
      <path class="cls-7" d="m103.02,277.08c-2.91-.29-5.22.96-5.28-3-.06-4.07,1.89-4.19,4.67-3.75,1.68.27,4.47-1.5,4.45,2.41-.02,3.48-1.11,5.22-3.84,4.33Z"/>
      <path class="cls-41" d="m59.78,270.4c1.49.45,4.32-1.57,4.35,2.4.03,3.71-1.6,4.9-4.93,4.15-1.51-.34-4.17,1.58-4.09-2.3.07-3.33.56-5.43,4.67-4.25Z"/>
      <path class="cls-9" d="m102.08,279c.88.71,3.56-1.31,3.3,1.34-.21,2.18-.03,5.86-4.04,5.26-1.87-.28-5.01,1.79-5.46-1.4-.52-3.69,1.67-5.21,6.2-5.21Z"/>
      <path class="cls-3" d="m73.97,285.69c.33-1.11.44-1.72.69-2.26.65-1.41.14-3.76,1.82-4.16,2.24-.54,4.69-.22,7.05-.21.82,0,.83.62.8,1.32-.19,3.53-1.99,5.3-5.48,5.31-1.49,0-2.98,0-4.88,0Z"/>
      <path class="cls-3" d="m69.96,279c.94.69,3.22-1.34,3.57,1.16.41,2.9-1.92,5.79-4.36,5.42-1.84-.28-5.04,1.87-5.4-1.38-.42-3.83,1.63-5.2,6.19-5.2Z"/>
      <path class="cls-8" d="m90.7,276.67c-.58-.86-3.57,2.36-3.54-1.46.04-4.91,0-5.03,4.72-4.85,1.6.06,4.2-1.41,4.29,2.23.09,3.66-1.17,5.35-5.47,4.08Z"/>
      <path class="cls-9" d="m85.06,285.7c.83-6.71,2.04-7.61,8.42-6.73,1.36.19,1.68.66,1.41,1.87-.69,3.09-1.69,5.69-5.76,4.9-1.3-.25-2.7-.04-4.07-.04Z"/>
      <path class="cls-9" d="m56.6,285.69c-.93-.75-3.35,1.46-3.53-1.36-.24-3.67,1.76-5.48,5.88-5.25,1.28.07,3.86-1.6,3.8,1.59-.07,3.75-1.71,5.03-6.14,5.02Z"/>
      <path class="cls-45" d="m80.9,242.8c-2.39.1-4.54.58-4.51-3.34.04-4.09,2.5-3.07,4.67-3.16,2.34-.09,4.4-.54,4.41,3.34.01,4.14-2.45,3.05-4.57,3.16Z"/>
      <path class="cls-35" d="m70.03,242.81c-1.8-.26-4.47,1.13-4.34-2.87.09-2.81.66-4.17,3.66-3.65.6.1,1.24.08,1.85,0,2.48-.32,3.7.17,3.68,3.24-.03,2.96-1.05,3.68-3.63,3.29-.36-.06-.74,0-1.22,0Z"/>
      <path class="cls-22" d="m101.98,242.78c-2.09.1-4.2.71-4.22-3.25-.02-4.42,2.68-3.13,4.85-3.21,2.11-.07,4.26-.74,4.34,3.05.08,4.19-2.35,3.45-4.97,3.41Z"/>
      <path class="cls-45" d="m91.53,242.79c-2.66.36-4.29.17-4.31-3.44-.03-4.24,2.64-2.86,4.68-3.05,2.51-.24,4.41-.29,4.37,3.45-.04,4.19-2.7,2.85-4.74,3.04Z"/>
      <path class="cls-31" d="m59.54,236.29c2.29.09,4.69-.88,4.69,3.2,0,4.27-2.56,3.19-4.84,3.33-2.47.15-4.25.27-4.28-3.41-.04-4.13,2.46-2.96,4.43-3.13Z"/>
    </g>
  </g>
</svg>